<svg xmlns:inkscape="http://www.inkscape.org/namespaces/inkscape" xmlns:sodipodi="http://sodipodi.sourceforge.net/DTD/sodipodi-0.dtd" xmlns="http://www.w3.org/2000/svg" xmlns:svg="http://www.w3.org/2000/svg" version="1.1" viewBox="0 0 4311.6704 3714.8160000000003" x="0px" y="0px"><g transform="translate(-262.50057,-1261.0594)"><path style="" d="m 473.36799,4232.2932 c -44.22687,-4.2382 -82.50245,-18.9042 -113.79828,-43.6038 -53.64986,-42.342 -83.50513,-106.3142 -80.8499,-173.2407 2.22299,-56.0316 24.40545,-105.1697 65.25018,-144.5409 19.65271,-18.9437 41.90955,-33.0996 69.398,-44.1389 9.65235,-3.8763 34.80035,-10.261 47,-11.9326 12.43674,-1.7041 43.95265,-1.7057 56,0 13.38118,1.8913 35.33726,7.4407 45.67013,11.5431 4.81697,1.9125 8.88153,3.3539 9.03236,3.203 0.15083,-0.1508 -2.36608,-1.5361 -5.59313,-3.0785 l -5.86737,-2.8044 37.2508,-75.1239 c 20.48793,-41.3182 69.25849,-139.5495 108.379,-218.2919 39.12052,-78.7423 71.10908,-143.5423 71.08569,-144 -0.0234,-0.4576 -5.76089,-4.6665 -12.75,-9.353 -85.51036,-57.3379 -130.16333,-87.6246 -130.18326,-88.2989 -0.0133,-0.4509 1.36765,-2.9259 3.06881,-5.5 l 3.09304,-4.6802 -3.79921,4.5 c -40.809,48.3365 -94.17045,74.8382 -156.38686,77.6686 -58.64456,2.668 -116.90106,-21.2503 -159,-65.2804 -16.26658,-17.0127 -26.8561,-32.4826 -37.57248,-54.8882 -18.51027,-38.701 -24.54822,-82.0996 -17.33286,-124.5823 9.77544,-57.556 43.04776,-108.4199 91.90534,-140.497 24.84472,-16.3117 50.65087,-26.3165 81.5,-31.5968 17.13763,-2.9334 48.51413,-3.1763 64.5,-0.4993 28.82365,4.8269 52.87593,13.4431 76.5,27.4045 7.65075,4.5214 8.7385,4.3651 2.09077,-0.3005 -1.37247,-0.9632 -1.62422,-1.7038 -0.89545,-2.6343 0.55757,-0.7119 38.28944,-50.1193 83.84859,-109.7943 45.55915,-59.675 87.06084,-114.0191 92.22598,-120.7647 l 9.39117,-12.2647 -31.4895,-42.2353 c -17.31922,-23.2323 -56.07468,-75.0882 -86.12324,-115.2382 l -54.63376,-73 3.79272,-3.3255 3.79272,-3.3254 -4,2.3928 c -42.99485,25.7199 -92.54437,35.6501 -141,28.2577 -63.69096,-9.7168 -120.02139,-48.7042 -151.7073,-104.9996 -41.58642,-73.8854 -33.93682,-166.7596 19.23224,-233.5 7.70166,-9.6675 26.54407,-28.3366 35.47506,-35.1487 48.51212,-37.0027 110.25343,-51.4691 169.48586,-39.7118 34.05453,6.7597 66.50074,22.2397 92.75703,44.2542 8.65295,7.2551 23.74553,22.3453 30.11093,30.1063 l 3.28072,4 -2.56727,-3.9821 c -1.412,-2.1902 -2.55542,-4.4402 -2.54093,-5 0.0201,-0.7777 62.81595,-42.7065 143.27224,-95.6631 0.57151,-0.3761 -1.31112,-5.3792 -4.51551,-12 -40.54007,-83.7612 -201.13093,-413.5245 -201.62269,-414.0195 -0.36321,-0.3656 -6.94285,2.454 -14.62142,6.2658 -30.3342,15.0585 -58.28709,21.3977 -94.03896,21.3262 -16.24385,-0.033 -22.43034,-0.4684 -32.94058,-2.3213 -36.11965,-6.3675 -70.12195,-21.6429 -97.55942,-43.8281 -9.76873,-7.8988 -28.04797,-26.773 -35.13434,-36.2779 -26.45419,-35.483 -40.56557,-74.7866 -42.49438,-118.3571 -1.8012,-40.6878 8.38406,-80.8405 29.42826,-116.0132 45.75133,-76.4675 133.11879,-115.4318 220.93504,-98.533 59.00408,11.3544 111.83253,49.539 141.87845,102.5502 14.04399,24.7784 23.63771,54.7498 26.27034,82.0702 0.82228,8.5333 0.85018,8.6053 0.98148,2.5329 l 0.13515,-6.25 h 428.00001 428 l 0.1351,6.25 c 0.1314,6.0724 0.1592,6.0004 0.9815,-2.5329 1.9235,-19.9607 8.5043,-44.6155 17.2741,-64.7171 15.4107,-35.3231 46.7124,-71.0365 80.7817,-92.1669 70.4182,-43.6748 159.9117,-41.9996 228.4906,4.2769 20.1452,13.5938 42.6799,36.1225 56.1622,56.1471 19.3791,28.783 31.8335,63.2082 35.1087,97.0443 l 0.7936,8.1986 0.1362,-6.25 0.1363,-6.25 h 440 440 l 0.1351,6.25 c 0.1314,6.0724 0.1592,6.0004 0.9815,-2.5329 3.5291,-36.623 18.5599,-74.8963 41.2668,-105.0783 7.5253,-10.0026 24.6889,-27.9178 34.2083,-35.7063 24.8051,-20.2949 57.7463,-36.2852 88.6647,-43.0396 62.8224,-13.7242 129.4137,2.4943 178.4865,43.4708 42.6468,35.6107 69.9642,86.6364 75.1405,140.3534 0.8223,8.5333 0.8501,8.6053 0.9815,2.5329 l 0.1351,-6.25 h 442 442 l 0.1447,9.75 0.1447,9.75 0.782,-11.5124 c 2.802,-41.2504 20.4669,-84.4115 48.085,-117.4876 55.7763,-66.7988 146.1034,-92.0638 228.8448,-64.009 66.3411,22.494 118.2855,78.6029 135.4475,146.3068 4.85,19.1328 5.911,28.3018 5.9831,51.7022 0.076,24.7879 -1.1929,34.9898 -6.9805,56.1074 -23.0652,84.1581 -95.803,145.0837 -183.0949,153.3614 -30.9334,2.9334 -64.8277,-1.4494 -91.7899,-11.8692 -8.4215,-3.2545 -11.2955,-3.634 -4.5767,-0.6042 2.2056,0.9946 4.0102,1.9988 4.0102,2.2316 0,0.4213 -34.4747,68.5859 -52.9896,104.773 -66.2485,129.4811 -161.1016,317.7958 -160.4008,318.4483 0.4897,0.4559 28.7904,18.6882 62.8904,40.5161 34.1,21.828 62.4044,40.08 62.8987,40.5601 0.528,0.5129 0.2188,1.9249 -0.75,3.4242 -6.4307,9.9517 -6.0543,9.8041 2.4191,-0.9487 23.3378,-29.6155 59.5669,-54.5937 97.0966,-66.9435 25.2937,-8.3232 45.2784,-11.1203 73.3356,-10.2639 46.1395,1.4083 89.2426,17.489 124.8354,46.5729 68.0207,55.5817 94.3064,146.2757 66.5694,229.685 -24.8814,74.8221 -92.1699,130.7114 -169.706,140.9563 -15.0246,1.9852 -44.8595,1.9494 -59.347,-0.071 -26.6202,-3.7129 -57.7215,-14.7777 -78.3518,-27.8749 -6.6584,-4.2272 -8.5896,-5.1725 -5.3275,-2.6078 7.6023,5.9769 8.0779,3.8205 -4.4576,20.2115 -56.3781,73.7184 -173.1898,228.5736 -173.0954,229.4694 0.1388,1.3163 178.202,230.3663 179.0865,230.3663 0.3251,0 4.2368,-1.9838 8.6926,-4.4084 21.5076,-11.7032 49.3652,-20.5055 74.5752,-23.5637 12.4081,-1.5052 40.1986,-1.2541 53.4498,0.483 55.0267,7.2134 107.3864,38.2586 140.2663,83.167 43.2894,59.1261 53.0731,134.3076 26.3141,202.2081 -27.5701,69.9586 -92.5409,120.8973 -166.5804,130.6031 -13.3273,1.747 -39.8736,1.9766 -52.9236,0.4578 -47.417,-5.5189 -89.6565,-26.199 -124.7726,-61.0876 l -9.7725,-9.7093 -68.2275,46.0911 c -37.525,25.3502 -68.3864,46.2129 -68.5808,46.3618 -0.1943,0.1488 4.3709,9.4115 10.1451,20.5838 5.7741,11.1723 43.2231,83.9883 83.22,161.8133 39.9968,77.825 85.3047,165.9518 100.6842,195.8374 15.3794,29.8856 27.8144,54.4666 27.6333,54.6245 -0.181,0.1579 -2.1292,1.27 -4.3292,2.4713 -2.2,1.2014 -3.1,1.8743 -2,1.4954 1.1,-0.3788 6.725,-2.3798 12.5,-4.4464 11.5238,-4.124 29.7884,-8.3547 42.9738,-9.9543 12.4081,-1.5052 40.1986,-1.2541 53.4498,0.483 78.1226,10.241 145.3136,65.9171 170.5092,141.2881 14.7801,44.2137 14.4131,92.8409 -1.0331,136.881 -17.546,50.0271 -56.4085,93.9651 -103.9558,117.5326 -30.2139,14.9759 -59.3825,21.7905 -93.2451,21.7846 -31.731,-0.01 -55.5896,-4.814 -84.1988,-16.9694 -12.4985,-5.3103 -20.2713,-9.5745 -33,-18.1041 -51.6266,-34.5953 -84.281,-87.8199 -91.9812,-149.9237 -1.2847,-10.361 -1.3033,-10.4106 -1.4103,-3.75 l -0.1085,6.7497 h -3.1356 c -9.4506,0 -690.097,8.123 -752.3644,8.9789 -40.7,0.5595 -84.4625,1.0181 -97.25,1.0191 h -23.25 l -0.1351,-4.75 c -0.093,-3.2839 -0.3964,-2.0391 -0.9815,4.0329 -1.8902,19.6153 -7.6204,41.5771 -16.1031,61.7171 -15.9301,37.8221 -45.3259,71.9391 -82.2803,95.4951 -10.0387,6.3991 -31.3167,16.2801 -44,20.4327 -24.1389,7.9032 -40.1056,10.4124 -66.5,10.4503 -30.5773,0.044 -53.8845,-4.5257 -81.7801,-16.034 -47.7076,-19.6816 -91.0193,-62.7327 -111.0122,-110.3441 -8.3714,-19.9356 -14.0011,-41.3368 -16.0596,-61.0507 -0.8238,-7.8888 -0.8912,-8.0679 -1.0152,-2.6993 l -0.1329,5.752 h -438 -438 l -0.1351,-6.25 c -0.1314,-6.0724 -0.1592,-6.0004 -0.9815,2.5329 -3.8828,40.2938 -21.0916,81.229 -47.2771,112.46 -20.4606,24.4029 -42.3969,41.4846 -71.1063,55.3699 -50.5945,24.4701 -106.8023,27.3781 -161.4593,8.3532 -46.1006,-16.0465 -87.4194,-51.0703 -112.4842,-95.3469 -12.8612,-22.7191 -22.6268,-53.532 -25.4084,-80.1698 -0.8238,-7.8888 -0.8912,-8.0679 -1.0152,-2.6993 l -0.1329,5.75 h -430 -430.00001 l -0.13626,-6.25 -0.13627,-6.25 -0.80366,8.3245 c -3.05983,31.6941 -15.103,66.0563 -32.65587,93.1755 -15.45522,23.8783 -38.70838,47.0489 -62.76794,62.545 -12.16017,7.8321 -34.58879,18.5501 -48,22.9379 -24.90548,8.1484 -57.15352,12.0989 -80.5,9.8616 z m 42.5864,-51.7614 c 54.37883,-9.6306 100.05987,-46.5809 120.45071,-97.4298 25.41594,-63.38 8.51144,-135.3987 -42.26857,-180.0781 -47.87577,-42.124 -115.73044,-51.7657 -174.10524,-24.7392 -32.22213,14.9183 -61.42339,44.055 -76.19529,76.0269 -15.83703,34.2771 -19.52936,72.7588 -10.3758,108.1371 16.76646,64.8019 71.49192,112.3992 137.40779,119.5099 10.5656,1.1397 34.95203,0.368 45.0864,-1.4268 z m 1280.00001,0 c 54.3788,-9.6306 100.0599,-46.5809 120.4507,-97.4298 25.416,-63.38 8.5115,-135.3987 -42.2686,-180.0781 -63.4006,-55.7838 -159.0369,-52.7609 -218.7887,6.9154 -21.7468,21.7193 -35.2555,45.9461 -42.3951,76.0318 -6.0642,25.5543 -5.8904,51.7499 0.5075,76.4776 16.7717,64.822 71.4715,112.397 137.4078,119.5099 10.5656,1.1397 34.952,0.368 45.0864,-1.4268 z m 2585.4136,-14.6829 c 33.5624,-4.2994 64.6673,-19.2317 89.3485,-42.893 58.4661,-56.0502 66.0593,-146.3161 17.7553,-211.0718 -19.4466,-26.0698 -47.3541,-46.1996 -78.2054,-56.41 -30.9912,-10.2566 -68.8056,-10.2566 -99.7968,0 -14.5072,4.8012 -32.7979,14.0876 -43.6016,22.137 -12.3128,9.1737 -30.6772,27.8969 -38.2264,38.973 -33.0891,48.5481 -37.2525,110.642 -10.9323,163.0486 14.2478,28.3691 38.6703,53.3199 67.6587,69.1223 27.7848,15.1462 62.6886,21.3612 96,17.0939 z M 1128.4157,3997.9487 h 429.9523 l 0.1363,6.25 0.1362,6.25 0.7936,-8.1986 c 2.3891,-24.6814 9.4848,-49.2553 21.0216,-72.8014 3.2337,-6.6 5.0994,-10.8994 4.1459,-9.5543 -0.9535,1.3452 -2.425,3.3006 -3.27,4.3454 -1.7066,2.11 23.6133,18.8507 -250.9636,-165.9293 -58.025,-39.0486 -122.825,-82.6227 -144,-96.8312 -21.175,-14.2085 -43.7548,-29.4063 -50.1774,-33.7728 l -11.6775,-7.939 -92.8225,63.251 c -365.06343,248.7608 -355.60406,242.3919 -356.96551,240.3422 -4.04016,-6.0825 -3.76171,-4.7081 1.03078,5.088 6.69797,13.691 9.52216,20.8829 13.9405,35.5 3.62295,11.9857 7.53269,32.5555 7.8643,41.3753 0.18583,4.9426 0.2053,4.9026 0.54772,-1.1253 l 0.35503,-6.25 z m 1288,0 h 437.9523 l 0.1363,6.25 0.1362,6.25 0.7936,-8.1986 c 2.3891,-24.6814 9.4848,-49.2553 21.0216,-72.8014 3.2337,-6.6 5.0994,-10.8994 4.1459,-9.5543 -0.9535,1.3452 -2.4258,3.3016 -3.2719,4.3477 -1.4688,1.816 -4.724,-0.2418 -72,-45.5141 -38.7539,-26.0788 -131.8867,-88.7389 -206.9617,-139.2445 -75.075,-50.5056 -146.7369,-98.7258 -159.2486,-107.1561 l -22.7485,-15.3277 -108.2515,72.8128 c -59.5383,40.047 -162.9084,109.6054 -229.7114,154.5742 -115.9577,78.0576 -121.5298,81.6752 -123,79.8575 -0.847,-1.0473 -2.3231,-3.0046 -3.2803,-4.3498 -0.9572,-1.3451 0.4044,1.8293 3.0258,7.0543 6.2466,12.4509 12.4013,28.2385 15.602,40.0206 2.9983,11.0373 6.5279,30.917 6.8052,38.3288 0.1871,5.0027 0.2029,4.9711 0.5477,-1.0994 l 0.355,-6.25 z m 861.2471,-2.396 c 1.7629,-0.2583 48.4302,-0.9571 103.7052,-1.5528 124.344,-1.34 575.4968,-6.6469 682.5,-8.0282 43.45,-0.5609 80.6875,-1.0205 82.75,-1.0214 h 3.75 l 0.1329,4.75 c 0.099,3.5237 0.3606,2.5687 1.0152,-3.6993 2.4329,-23.299 10.0889,-49.952 20.2253,-70.4112 3.4442,-6.9517 6.1605,-12.6395 6.0362,-12.6395 -0.1243,0 -1.5048,2.0242 -3.0678,4.4982 -1.563,2.474 -3.0956,4.499 -3.4058,4.5 -0.6735,0 -11.9801,-7.425 -117.436,-77.142 -44.55,-29.452 -132.975,-87.8922 -196.5,-129.867 -63.525,-41.9748 -121.1624,-80.0889 -128.0831,-84.698 l -12.583,-8.3802 -133.417,90.2758 c -73.3793,49.6517 -177.7419,120.2728 -231.9169,156.9357 -90.7615,61.4229 -98.6178,66.5268 -100,64.9645 -0.825,-0.9326 -2.3156,-2.7961 -3.3123,-4.1413 -0.9968,-1.3451 -0.4942,0.029 1.117,3.0543 12.2481,22.9958 21.6167,53.6058 23.9115,78.1259 l 0.7838,8.3741 0.2948,-6.7131 0.2949,-6.7131 3.2051,-0.4698 z M 651.72661,3889.4336 c -2.01399,-3.0333 -3.48108,-5.6556 -3.26021,-5.8274 0.22087,-0.1717 7.60159,-5.1935 16.40159,-11.1594 8.8,-5.9659 72.925,-49.6161 142.5,-97.0005 69.575,-47.3843 158.44998,-107.8963 197.50001,-134.4709 39.05,-26.5747 71.7804,-49.045 72.7341,-49.9341 1.618,-1.5081 -3.5267,-5.1527 -76.7828,-54.3933 -43.18433,-29.0272 -78.92473,-52.5248 -79.42303,-52.2168 -0.4983,0.308 -44.02105,58.4217 -96.71716,129.1416 -154.12069,206.8349 -188.43253,252.7916 -189.83931,254.2675 -1.12545,1.1807 -1.98143,0.8875 -5.64912,-1.9354 -2.37748,-1.8298 -4.97599,-3.806 -5.77448,-4.3916 -0.79848,-0.5855 4.01184,4.2586 10.68961,10.7648 6.67777,6.5061 14.0233,14.2686 16.3234,17.25 2.3001,2.9813 4.35687,5.4206 4.5706,5.4206 0.21374,0 -1.2592,-2.4818 -3.2732,-5.5151 z m 970.44159,-16.413 c 10.1071,-10.0453 11.9792,-12.2496 7.4313,-8.75 -3.3438,2.573 -6.4513,4.6593 -6.9055,4.6363 -0.4543,-0.023 -13.4891,-17.0105 -28.9663,-37.75 -182.8561,-245.0287 -262.8011,-351.2528 -264.007,-350.79 -1.1512,0.4417 -151.1093,102.2192 -158.2687,107.4179 l -2.416,1.7543 42.416,28.5861 c 66.2672,44.6604 254.4122,171.2613 328.6503,221.1455 36.9789,24.8479 67.2414,45.5469 67.25,45.9978 0.01,0.4509 -1.3762,2.9259 -3.0773,5.5 l -3.0931,4.6802 3.7378,-4.5 c 2.0558,-2.475 9.8176,-10.5426 17.2485,-17.9281 z m 310.2478,17.4979 c -1.6764,-2.4366 -3.0377,-4.7991 -3.0252,-5.25 0.013,-0.4509 41.511,-28.7198 92.2186,-62.8198 50.7077,-34.1 115.6099,-77.7704 144.2272,-97.0454 28.6173,-19.275 85.7814,-57.7047 127.0314,-85.3993 41.25,-27.6946 75.7732,-51.0184 76.7182,-51.8307 1.5644,-1.3448 -5.4074,-6.2659 -77.9103,-54.9946 -55.514,-37.3106 -80.0174,-53.247 -80.9132,-52.6238 -1.2277,0.854 -31.4235,40.6805 -213.8947,282.1144 -44.55,58.9457 -81.46,107.1977 -82.0222,107.2267 -0.5621,0.029 -2.8121,-1.3839 -5,-3.1397 -2.1878,-1.7558 1.2169,2.1817 7.566,8.75 6.349,6.5683 12.815,13.6299 14.3687,15.6924 3.9068,5.1862 4.3473,4.7147 0.6355,-0.6802 z m 983.4024,-15.5012 c 6.0773,-6.2873 9.1374,-9.9622 6.8002,-8.1665 -2.3371,1.7957 -4.6719,3.1149 -5.1883,2.9314 -0.5164,-0.1834 -67.3982,-87.8585 -148.6262,-194.8335 -81.228,-106.975 -147.826,-194.6577 -147.9955,-194.8505 -0.3827,-0.4351 -159.3428,106.1599 -159.3411,106.8505 6e-4,0.275 52.516,35.7871 116.7008,78.9157 274.6083,184.5214 325.1579,218.6283 325.1782,219.4041 0.012,0.4509 -1.3704,2.9259 -3.0715,5.5 l -3.0931,4.6802 3.7935,-4.5 c 2.0864,-2.475 8.7658,-9.6441 14.843,-15.9314 z m 312.1043,14.7366 c -1.9241,-2.8572 -3.3985,-5.2748 -3.2765,-5.3725 0.122,-0.098 54.6718,-36.9773 121.2218,-81.9546 174.7778,-118.1222 301.2981,-203.7021 314.3507,-212.6308 l 11.3507,-7.7645 -33.8507,-22.348 c -18.6179,-12.2913 -54.3257,-35.8653 -79.3507,-52.3866 -25.025,-16.5212 -46.0333,-30.3418 -46.6851,-30.7123 -0.7512,-0.427 -7.9187,8.2109 -19.5784,23.5952 -10.1164,13.3479 -73.5034,96.9439 -140.8601,185.7689 -67.3567,88.825 -126.643,167.0393 -131.7473,173.8096 l -9.2807,12.3095 7.3402,7.6905 c 4.0371,4.2297 8.6246,9.3779 10.1945,11.4404 4.1401,5.4393 4.2402,4.5966 0.1716,-1.4448 z m 973.4205,-19.1209 c 4.0439,-4.8486 10.9914,-12.2455 15.4387,-16.4377 6.2263,-5.8689 6.8404,-6.6524 2.6702,-3.4063 -2.9787,2.3187 -5.877,4.0621 -6.4407,3.8742 -0.5637,-0.1879 -53.4765,-68.9825 -117.5841,-152.8768 -171.309,-224.1833 -174.1076,-227.8377 -174.4792,-227.8377 -0.9125,0 -158.0118,106.8028 -158.258,107.5906 -0.2753,0.8811 28.1247,19.7439 305.1196,202.654 71.4679,47.193 130.1486,86.0123 130.4015,86.2653 0.253,0.253 -1.2361,3.0542 -3.309,6.225 -4.3867,6.7101 -3.5336,5.9086 6.441,-6.0506 z m -2295.9752,-7.0619 c 0,-0.2076 -0.7875,-0.9951 -1.75,-1.75 -1.5861,-1.2438 -1.6214,-1.2085 -0.3776,0.3776 1.3064,1.6657 2.1276,2.1955 2.1276,1.3724 z m 1050,-20.2469 c 0,-0.7105 -5.827,2.5355 -6.4967,3.6191 -0.3429,0.5549 0.9786,0.064 2.9366,-1.0917 1.9581,-1.1552 3.5601,-2.2926 3.5601,-2.5274 z m -2355.50001,1.0165 c -2.35934,-1.8219 -8.33431,-5.0005 -7.25926,-3.8618 0.93665,0.9921 8.08995,5.4076 8.75926,5.4068 0.275,-3e-4 -0.4,-0.6956 -1.5,-1.545 z m 1061.00001,-1.8671 c 1.8565,-1.5053 1.7713,-1.5111 -1.1866,-0.08 -1.7526,0.8477 -3.4944,2.0394 -3.8707,2.6482 -0.8291,1.3416 2.02,-0.1051 5.0573,-2.5678 z m 219,1.8671 c -2.3593,-1.8219 -8.3343,-5.0005 -7.2593,-3.8618 0.9367,0.9921 8.09,5.4076 8.7593,5.4068 0.275,-3e-4 -0.4,-0.6956 -1.5,-1.545 z m -33.25,-17.1597 c -2.8875,-1.4553 -5.25,-3.0357 -5.25,-3.512 0,-0.8087 30.8848,-62.1428 168.1234,-333.8766 30.1821,-59.761 54.8766,-108.8638 54.8766,-109.1172 0,-0.2535 -30.363,-20.8831 -67.4734,-45.8437 -37.1104,-24.9605 -67.4854,-45.7517 -67.5,-46.2026 -0.015,-0.4509 1.3653,-2.9259 3.0664,-5.5 l 3.0931,-4.6802 -3.804,4.5 c -31.4547,37.2103 -69.8433,61.2469 -115.1412,72.0946 -61.7962,14.7986 -126.3911,0.6335 -177.7409,-38.9771 -9.3928,-7.2455 -25.7889,-23.1928 -32.2502,-31.3675 -2.4997,-3.1625 -4.708,-5.75 -4.9075,-5.75 -0.1995,0 1.2851,2.4818 3.2991,5.5151 2.014,3.0333 3.4811,5.6666 3.2602,5.8518 -0.2209,0.1852 -28.4688,19.4159 -62.7731,42.7349 -34.3043,23.319 -62.5656,42.8972 -62.8028,43.507 -0.2372,0.6099 48.1924,101.0663 107.6215,223.2364 59.429,122.1701 108.0528,222.495 108.0528,222.9441 0,0.4492 -1.9125,1.8226 -4.25,3.0521 -4.4909,2.3621 -4.0729,2.2678 6.25,-1.4108 10.0237,-3.572 24.7475,-7.1693 37.1962,-9.0879 15.5038,-2.3894 46.2677,-2.4166 61.3038,-0.054 14.0239,2.2033 34.9802,7.6914 44,11.5228 8.7286,3.7078 10.7134,3.9306 3.75,0.4211 z m 1151.3991,-3.2732 c 11.8935,-4.0606 24.2806,-6.9562 38.8509,-9.0817 11.711,-1.7084 43.3906,-1.7043 55.5,0.01 10.498,1.4837 35.032,7.2662 40.4702,9.5384 l 3.4757,1.4522 12.4099,-24.1876 c 6.8254,-13.3032 27.2563,-53.4377 45.4018,-89.1877 18.1456,-35.75 63.6887,-125.4471 101.2068,-199.327 37.5182,-73.8798 68.0621,-134.4734 67.8753,-134.6523 -0.1868,-0.179 -30.4897,-20.2161 -67.3397,-44.5269 -36.85,-24.3109 -67.6146,-44.7855 -68.3658,-45.4992 -1.1467,-1.0895 -0.854,-2.0754 1.8245,-6.1461 l 3.1903,-4.8485 -4.2932,5 c -8.5617,9.9714 -23.5322,24.8428 -31.3558,31.1482 -30.2083,24.3464 -65.7638,39.7628 -105,45.5267 -10.6426,1.5634 -44.9455,1.5521 -55,-0.018 -41.2429,-6.4409 -73.0053,-20.0143 -103.5,-44.2298 -8.192,-6.5051 -24.514,-22.5944 -32.3889,-31.927 l -3.7972,-4.5 3.0931,4.6802 c 1.7011,2.5741 3.0854,5.0491 3.076,5.5 -0.01,0.4509 -31.0731,21.6975 -69.0305,47.2147 -37.9574,25.5171 -69.1764,46.6671 -69.3754,47 -0.199,0.3328 12.3399,25.3551 27.8643,55.6051 96.6772,188.3804 197.5586,385.4395 197.5586,385.9058 0,0.3005 -1.6875,1.4836 -3.75,2.629 -2.0625,1.1455 -2.85,1.7785 -1.75,1.4067 1.1,-0.3718 7.0171,-2.3888 13.1491,-4.4824 z m -1453.219,-203.5482 c -46.5198,-95.651 -89.1599,-183.2819 -94.7558,-194.7354 l -10.1743,-20.8245 -33.5,22.9212 c -18.425,12.6067 -33.3871,23.4413 -33.2492,24.0769 0.2779,1.2805 255.597,343.0624 256.0049,342.7 0.1407,-0.125 -37.8058,-78.4872 -84.3256,-174.1382 z m 398.5713,130.1883 c 14.4625,-19.1955 71.2528,-94.3054 126.2005,-166.9109 81.5888,-107.8078 99.666,-132.2433 98.6015,-133.2826 -3.4079,-3.3273 -61.2909,-41.318 -61.9482,-40.6588 -0.4131,0.4142 -31.4099,61.5031 -68.8816,135.7531 -37.4718,74.25 -80.302,159.075 -95.1781,188.5 -14.8762,29.425 -26.6071,53.05 -26.0687,52.5 0.5384,-0.55 12.812,-16.7054 27.2746,-35.9008 z M 756.89246,3620.9487 c 65.33092,-87.725 119.80362,-160.85 121.05043,-162.5 l 2.26692,-3 -30.7777,-20.7091 -30.77771,-20.7091 -34.04891,68.7091 c -18.72691,37.79 -59.99033,120.9091 -91.69651,184.7091 -31.70617,63.8 -57.00688,115.325 -56.2238,114.5 0.78307,-0.825 54.87635,-73.275 120.20728,-161 z m 2585.82744,-6.2695 c 69.1064,-91.1732 125.6481,-166.0055 125.6481,-166.2939 0,-1.2344 -62.3335,-41.5031 -63.0834,-40.7532 -0.7065,0.7065 -165.9849,325.5249 -184.6132,362.8166 -3.5716,7.15 -5.8426,12.325 -5.0467,11.5 0.7958,-0.825 57.9887,-76.0963 127.0952,-167.2695 z m -436.6734,154.0195 c -2.9868,-5.6375 -45.1111,-87.7104 -93.6096,-182.3843 -48.4985,-94.6738 -88.7169,-172.8037 -89.374,-173.622 -1.015,-1.2637 -5.6706,1.5424 -30.9157,18.6343 -16.3464,11.0671 -29.7163,20.347 -29.7109,20.622 0.01,0.275 10.7905,14.675 23.9669,32 13.1765,17.325 68.9843,90.7875 124.0174,163.25 55.0332,72.4625 100.2844,131.75 100.5583,131.75 0.2739,0 -1.9457,-4.6125 -4.9324,-10.25 z m 1299.2377,-8 c -19.5503,-39.1101 -182.4602,-354.75 -183.0957,-354.75 -0.4861,0 -14.1057,8.9231 -30.2659,19.8292 l -29.3821,19.8291 7.2329,9.4209 c 3.9781,5.1814 58.8786,77.0333 122.001,159.6708 63.1225,82.6375 114.963,150.25 115.2012,150.25 0.2382,0 -0.523,-1.9125 -1.6914,-4.25 z M 1158.975,3535.8469 c 107.613,-73.1655 140.893,-96.0456 140.893,-96.8646 0,-1.0565 -171.7426,-231.0445 -172.5,-231.0023 -0.275,0.015 -39.9626,52.9636 -88.1947,117.6629 l -87.69473,117.635 33.6947,22.6834 c 18.53213,12.4759 57.09473,38.4748 85.69473,57.7754 28.6,19.3005 52.7232,34.9529 53.607,34.783 0.8839,-0.17 16.4089,-10.3727 34.5,-22.6728 z m 1277.893,7.194 c 11,-7.3744 50.0265,-33.6073 86.7256,-58.2955 l 66.7256,-44.8875 -9.3239,-12.2046 c -13.9172,-18.217 -131.4519,-173.0512 -149.4806,-196.9181 -8.6057,-11.3925 -15.8717,-20.7066 -16.1467,-20.698 -0.275,0.01 -11.075,14.0461 -24,31.1944 -12.925,17.1483 -51.936,68.725 -86.6911,114.6149 l -63.1912,83.4362 33.6912,22.6945 c 18.5301,12.482 57.7661,38.9325 87.1911,58.779 29.425,19.8465 53.725,35.9963 54,35.8885 0.275,-0.1078 9.5,-6.2295 20.5,-13.6038 z m 1329.2064,-24.8422 c 27.4193,-18.5625 66.5843,-45 87.0334,-58.75 20.449,-13.75 37.019,-25.4796 36.8222,-26.0658 -0.2723,-0.811 -93.5871,-123.2775 -168.0758,-220.583 l -5.8553,-7.6488 -3.6427,4.6488 c -11.4128,14.5652 -170.1547,224.4299 -170.5209,225.4371 -0.261,0.7181 35.0978,24.7006 86.7961,58.8704 47.9801,31.7123 87.3161,57.6998 87.4132,57.75 0.097,0.05 22.6105,-15.0962 50.0298,-33.6587 z M 927.92907,3391.409 c 35.5978,-47.819 155.80683,-209.0671 158.20083,-212.2103 l 2.4755,-3.25 -75.8687,0.042 -75.86873,0.042 -47.92232,96.5714 c -37.81499,76.2034 -47.62235,96.7426 -46.5,97.3829 0.78229,0.4464 16.04734,10.7163 33.92234,22.822 17.875,12.1058 32.84593,22.0394 33.26874,22.0747 0.42281,0.035 8.65434,-10.5287 18.29234,-23.4755 z m 1738.43893,-2.7161 c 17.875,-12.008 32.604,-22.1504 32.7311,-22.5385 0.127,-0.3881 -21.5672,-43.2307 -48.2095,-95.2057 l -48.4405,-94.5 -74.5406,-0.2564 c -40.9973,-0.141 -74.5405,0 -74.5405,0.3036 0,0.308 40.1243,53.3914 89.1652,117.9633 53.0744,69.8828 89.6043,117.1328 90.25,116.735 0.5966,-0.3676 15.7098,-10.4932 33.5848,-22.5013 z m -1287.2292,-2.7465 c 20.2011,-13.7512 37.0929,-25.5637 37.5373,-26.25 0.5099,-0.7871 -15.4606,-34.6409 -43.2657,-91.7135 -24.2407,-49.7562 -44.4295,-90.8213 -44.8641,-91.2559 -0.4346,-0.4346 -37.0485,-0.675 -81.3642,-0.5343 l -80.574,0.256 37.4268,50 c 20.5848,27.5 60.0182,80.2556 87.63,117.2347 27.6117,36.9791 50.325,67.2416 50.4739,67.25 0.149,0.01 16.799,-11.2357 37,-24.987 z m 909.8973,-92.072 c 48.5223,-64.0341 88.247,-116.7632 88.2771,-117.1757 0.03,-0.4125 -34.4907,-0.75 -76.713,-0.75 h -76.7678 l -47.3046,93.6275 c -26.0176,51.4952 -46.9346,93.9967 -46.4823,94.448 2.2966,2.2908 68.9622,46.7203 69.7954,46.5153 0.5351,-0.1317 40.673,-52.631 89.1952,-116.6651 z m 1221.1153,99.8243 c 20.51,-26.8236 164.8065,-217.2481 165.5712,-218.5 0.6082,-0.9958 -14.7893,-1.25 -75.7028,-1.25 h -76.4662 l -47.3428,93.25 c -26.0385,51.2875 -47.3428,93.5988 -47.3428,94.0251 0,0.7533 68.3071,46.463 69.6938,46.6376 0.3815,0.048 5.5969,-6.3252 11.5896,-14.1627 z m 488.6152,-34.0598 c -0.056,-0.6546 -21.5153,-42.8152 -47.6879,-93.6902 l -47.5865,-92.5 -57.8121,-0.238 c -31.7967,-0.1308 -65.1225,0.094 -74.0574,0.5 l -16.2453,0.738 85.554,112 c 47.0548,61.6 86.8708,113.6526 88.4801,115.6724 l 2.926,3.6723 33.2652,-22.4822 c 18.2959,-12.3652 33.2197,-23.0178 33.1639,-23.6723 z m -3158.05193,-101.9402 40.49921,-81.75 h -99.42295 -99.42294 l -0.14983,-6.25 c -0.0824,-3.4375 -0.30721,-4.9 -0.49957,-3.25 -0.19235,1.65 -0.83689,7.1977 -1.43231,12.3282 -2.36983,20.4201 -9.66277,44.2348 -19.85177,64.8251 -6.38053,12.894 -6.57362,13.7494 -1.54697,6.8539 l 2.01956,-2.7705 56.98044,38.3524 c 31.33925,21.0938 62.38045,42.043 68.98045,46.5538 6.6,4.5107 12.30318,7.8989 12.67373,7.5292 0.37055,-0.3696 18.89838,-37.4596 41.17295,-82.4221 z m 1968.66283,34.7134 c 63.4538,-42.6777 66.4773,-44.5804 67.9496,-42.76 0.8475,1.0478 2.3565,3.0057 3.3532,4.3509 0.9968,1.3451 0.5018,-0.029 -1.1001,-3.0543 -12.6717,-23.9296 -21.6391,-53.2249 -24.0956,-78.7171 -0.8216,-8.5268 -0.8502,-8.6008 -0.9815,-2.5378 l -0.1351,6.2451 -97.9324,0.2549 -97.9323,0.2549 38.5062,75 c 21.1784,41.25 39.8381,77.6047 41.466,80.7882 1.6279,3.1835 3.3049,5.575 3.7266,5.3143 0.4217,-0.2606 30.6507,-20.5732 67.1754,-45.1391 z m -682.0095,-35.9955 c 21.725,-43.1639 39.65,-78.9271 39.8333,-79.4738 0.2194,-0.6541 -32.014,-0.9941 -94.25,-0.9941 h -94.5833 l -0.1363,-6.25 -0.1362,-6.25 -0.8037,8.3245 c -2.4237,25.1055 -11.6337,55.6249 -23.5914,78.1755 -1.8957,3.575 -2.6335,5.3994 -1.6396,4.0543 0.994,-1.3452 2.5004,-3.3028 3.3476,-4.3503 1.4716,-1.8194 4.4188,0.039 66,41.6088 35.4528,23.9323 64.9096,43.5406 65.4596,43.574 0.55,0.033 18.775,-35.2551 40.5,-78.4189 z m 1299.3787,-2.0528 c 21.7917,-42.9468 39.6214,-78.4968 39.6214,-79 10e-5,-0.549 -38.4112,-0.8072 -96,-0.6456 l -96.0001,0.2696 -0.1329,-5.7696 c -0.1228,-5.3332 -0.1975,-5.1267 -0.9876,2.7305 -2.5262,25.1209 -12.1526,56.9875 -23.5624,78 -1.344,2.475 -1.6276,3.3994 -0.6303,2.0543 4.8941,-6.6013 -1.5914,-10.0741 70.8132,37.9179 36.3,24.0608 66.2829,43.4726 66.6287,43.1373 0.3458,-0.3352 18.4583,-35.7477 40.25,-78.6944 z m 685.1213,30.104 c 32.45,-21.8917 59.5731,-40.3284 60.2735,-40.9704 1.0192,-0.934 0.4884,-2.8667 -2.6574,-9.6757 -8.0381,-17.3985 -14.8704,-41.1977 -17.0448,-59.373 -1.6565,-13.8462 -1.7892,-14.412 -1.9351,-8.25 l -0.1362,5.75 h -26.335 c -14.4842,0 -57.4402,0.2987 -95.4578,0.6639 l -69.1229,0.6638 6.8373,13.0862 c 3.7604,7.1973 21.1244,40.9861 38.5865,75.0861 17.4621,34.1 32.837,63.9153 34.1664,66.2562 l 2.417,4.2562 5.7043,-3.8451 c 3.1373,-2.1147 32.2542,-21.7564 64.7042,-43.6482 z m -2590.5,4.5072 c 31.625,-21.5863 58.0088,-39.4505 58.6306,-39.6982 0.6219,-0.2478 2.1211,1.1521 3.3316,3.1107 3.8933,6.2995 3.1432,3.8169 -1.8699,-6.1888 -6.3985,-12.7709 -7.5781,-15.588 -12.2481,-29.25 -4.4031,-12.8811 -8.4544,-31.5048 -9.7276,-44.7171 -0.8216,-8.526 -0.8503,-8.6003 -0.9815,-2.5384 l -0.1351,6.2445 -86.9964,0.2555 -86.9965,0.2555 35.0915,72 c 19.3003,39.6 36.1722,74.4152 37.4932,77.3671 2.3283,5.203 2.4707,5.3219 4.655,3.887 1.2392,-0.814 28.1282,-19.1416 59.7532,-40.7278 z m -1021.41361,19.571 c 53.30961,-9.5346 98.46313,-45.345 119.27805,-94.5973 13.91966,-32.9367 16.71306,-68.0585 8.11254,-102 -4.71347,-18.6015 -11.4949,-33.9952 -21.80632,-49.5 -39.49458,-59.3861 -114.13974,-85.5989 -181.67067,-63.7963 -25.54033,8.2458 -45.36889,20.3141 -64.36462,39.1742 -47.93837,47.5963 -60.48419,118.8438 -31.89339,181.1221 14.39732,31.3612 41.72109,59.323 73.25801,74.9687 17.26024,8.5629 32.50938,13.2146 52.5,16.0149 8.76937,1.2284 36.59708,0.4003 46.5864,-1.3863 z m 2592.00001,-0.014 c 56.5412,-10.0135 103.6892,-49.7497 122.9042,-103.5831 10.8362,-30.3591 12.3592,-61.9303 4.4864,-93 -1.6027,-6.325 -3.8662,-13.975 -5.0299,-17 -19.1113,-49.6768 -59.9343,-86.1164 -110.9251,-99.0145 -46.3578,-11.7261 -96.2696,-1.791 -134.619,26.7963 -60.9154,45.409 -81.2092,126.4087 -49.161,196.2182 7.3503,16.011 19.0244,32.339 33.2462,46.5 24.5143,24.4096 58.9895,40.7318 94.0118,44.5099 10.5656,1.1397 34.952,0.368 45.0864,-1.4268 z m 1289.4136,-3.6703 c 81.7734,-10.3528 142.5588,-83.1522 138.6678,-166.0751 -3.5074,-74.7488 -58.8034,-137.2487 -132.6475,-149.9286 -23.097,-3.966 -52.5829,-2.1135 -74.0406,4.6517 -73.0306,23.0251 -119.8041,93.472 -112.0418,168.7495 6.0154,58.3371 42.8901,108.6557 96.1179,131.1611 26.7536,11.3117 54.7878,15.1327 83.9442,11.4414 z M 794.37598,3125.703 l 111.91278,-0.2543 31.95741,-64.1619 31.9575,-64.162 -35.0035,-46.838 c -19.2519,-25.761 -35.49761,-46.698 -36.10152,-46.5269 -0.60392,0.1712 -49.27787,31.6244 -108.16434,69.896 -134.43674,87.3734 -128.12644,83.2928 -128.80473,83.2928 -0.31435,0 -1.75828,-2.025 -3.20872,-4.5 -4.33881,-7.4036 -3.68106,-5.1313 1.59232,5.5008 11.48897,23.1641 20.07924,54.1909 21.04159,75.9992 0.1575,3.569 0.27201,3.2079 0.55351,-1.7457 l 0.35492,-6.2457 z m 768.00492,-15.0788 c 2.9791,-15.6087 9.0784,-33.8576 16.5194,-49.4255 3.4832,-7.2875 6.1982,-13.25 6.0333,-13.25 -0.1649,0 -1.5151,1.8364 -3.0005,4.081 -1.4854,2.2445 -3.2623,3.8654 -3.9488,3.602 -0.6865,-0.2634 -32.2685,-20.8426 -70.1822,-45.7314 -37.9138,-24.8888 -88.3655,-58.0097 -112.115,-73.602 -23.7495,-15.5923 -43.621,-28.3496 -44.1589,-28.3496 -0.9475,0 -59.1602,77.4293 -59.1602,78.6896 0,0.3444 15.1726,31.8301 33.7168,69.9683 l 33.7168,69.3421 h 99.2832 99.2832 l 0.1363,6.25 0.1362,6.25 0.8037,-8.3245 c 0.442,-4.5785 1.7635,-13.3535 2.9367,-19.5 z m 523.4989,15.3245 h 107.4164 l 31.2859,-62.25 c 17.2072,-34.2375 31.2361,-62.7366 31.1751,-63.3313 -0.061,-0.5947 -12.1929,-17.0197 -26.96,-36.5 -37.511,-49.4835 -40.5178,-53.3764 -41.5111,-53.7456 -0.4838,-0.1798 -51.975,32.7827 -114.4249,73.25 -62.4499,40.4673 -113.9646,73.5769 -114.4771,73.5769 -0.5125,0 -2.1185,-2.025 -3.569,-4.5 -1.4504,-2.475 -2.769,-4.5 -2.9303,-4.5 -0.1612,0 2.0997,4.8375 5.0242,10.75 10.2137,20.649 18.3148,49.0463 20.1842,70.7531 0.7708,8.9499 0.7764,8.9643 1.0725,2.7469 l 0.2977,-6.25 z m 772.4222,-14.8245 c 3.6146,-18.7856 9.4887,-36.0832 18.0405,-53.1246 2.774,-5.528 4.8819,-10.0509 4.6841,-10.0509 -0.1978,0 -1.7872,2.2965 -3.5321,5.1034 -2.2988,3.6981 -3.5103,4.8359 -4.3995,4.1319 -3.6944,-2.9248 -228.2875,-147.5364 -229.2763,-147.627 -1.4675,-0.1345 -73.0697,94.3043 -72.6377,95.8046 0.1722,0.5979 14.068,27.9746 30.8796,60.8371 l 30.5665,59.75 h 110.8704 110.8705 l 0.1363,6.25 0.1362,6.25 0.8037,-8.3245 c 0.442,-4.5785 1.728,-13.1285 2.8578,-19 z m 520.9741,13.8245 c 57.647,0 106.7948,-0.2717 109.2173,-0.6037 l 4.4046,-0.6037 12.615,-24.6463 c 6.9382,-13.5555 21.4273,-41.9873 32.198,-63.1819 l 19.5831,-38.5355 -34.5671,-45.2815 c -19.0119,-24.9049 -35.093,-45.0797 -35.7358,-44.8331 -0.6427,0.2467 -53.0227,34.0269 -116.3999,75.0671 -63.3772,41.0402 -115.6605,74.6186 -116.1851,74.6186 -0.5246,0 -2.1406,-2.025 -3.5911,-4.5 -3.5194,-6.0055 -4.3414,-5.7904 -0.9553,0.25 10.9988,19.6206 21.0555,52.5963 23.2162,76.1258 l 0.792,8.6242 0.2977,-6.25 0.2977,-6.25 z m 774.6461,-16.5 c 2.8918,-15.9003 8.5628,-33.5455 17.0546,-53.0654 0.3769,-0.8664 -224.1375,-146.6153 -227.9678,-147.9907 -1.3347,-0.4793 -70.992,91.1526 -71.081,93.5047 -0.033,0.8735 13.8873,28.7661 30.934,61.9834 l 30.994,60.3953 108.256,-0.6565 108.256,-0.6565 0.133,5.7429 c 0.1283,5.5364 0.1627,5.4552 0.9587,-2.2572 0.454,-4.4 1.5622,-12.05 2.4625,-17 z m -3090.2177,13.6678 c -1.5601,-2.1077 -15.6615,-20.9711 -31.3365,-41.9187 l -28.5,-38.0865 -20.69553,41.1687 c -11.3826,22.6428 -20.7201,41.5062 -20.75,41.9187 -0.03,0.4125 23.3844,0.75 52.03203,0.75 h 52.0865 z m 231.7108,-14.4178 c -4.8447,-10.0375 -15.1597,-31.2513 -22.9224,-47.1419 l -14.1138,-28.8919 -1.8451,2.3919 c -1.0148,1.3156 -16.3895,21.9669 -34.1661,45.8919 -17.7765,23.925 -32.7538,44.0625 -33.2829,44.75 -0.767,0.9967 10.8018,1.25 57.0884,1.25 h 58.0503 z m 1055.32,17 c -0.6852,-1.1408 -14.765,-19.7341 -48.1697,-63.611 l -12.4562,-16.3611 -20.3707,40.307 c -11.2039,22.1688 -20.3707,40.4438 -20.3707,40.611 0,0.1673 22.9766,0.3041 51.059,0.3041 40.581,0 50.905,-0.2565 50.3083,-1.25 z m 113.1165,-61.8541 47.7874,-63.1041 -1.7274,-3.6459 c -0.95,-2.0052 -10.5054,-20.7459 -21.2342,-41.6459 -10.7288,-20.9 -32.3607,-63.0875 -48.0709,-93.75 -15.7101,-30.6625 -28.8282,-55.7411 -29.1513,-55.7302 -0.3231,0.011 -22.1194,42.7937 -48.4362,95.0728 l -47.8488,95.0531 5.8659,7.6771 c 3.2263,4.2225 25.5925,33.6647 49.7028,65.4272 24.1102,31.7625 44.1717,57.75 44.5811,57.75 0.4094,0 22.2486,-28.3968 48.5316,-63.1041 z m 93.4324,25.3541 c -10.5584,-20.7625 -19.4714,-38.0618 -19.8066,-38.4429 -0.4953,-0.5629 -56.8138,72.7259 -57.9429,75.4027 -0.1834,0.4346 21.5546,0.7902 48.3066,0.7902 h 48.64 z m 1095.4648,34.5 c -1.2636,-2.1429 -58.5074,-77.1468 -60.3663,-79.0952 -1.6922,-1.7735 -2.561,-0.266 -22.3876,38.8483 -11.3449,22.3814 -20.6271,40.8742 -20.6271,41.0951 0,0.221 23.4266,0.4018 52.059,0.4018 41.3737,0 51.9078,-0.2566 51.322,-1.25 z m 223.8345,-0.082 c 0.8858,-0.2077 -38.2834,-76.6678 -39.2756,-76.6678 -0.7086,0 -58.9399,76.3938 -58.9399,77.3235 0,0.4224 96.3613,-0.2209 98.2155,-0.6557 z M 1180.8658,3052.057 c 28.8762,-38.7155 52.5022,-70.7606 52.5022,-71.2113 0,-0.6856 -30.6713,-63.9778 -87.3544,-180.2616 l -11.1456,-22.8648 -53.1367,107.0436 -53.1366,107.0435 49.0465,65.6013 c 26.9755,36.0807 49.4235,65.4753 49.8844,65.3213 0.4608,-0.1541 24.4639,-31.9564 53.3402,-70.672 z m 2584.3455,5.4594 46.954,-61.9325 -9.3422,-18.0675 c -5.1381,-9.9371 -27.1212,-52.7175 -48.8512,-95.0675 -42.4406,-82.713 -41.1408,-80.2433 -41.8389,-79.5 -0.2583,0.275 -21.9428,42.8 -48.1877,94.5 -42.1316,82.9954 -47.5742,94.2341 -46.4896,96 1.2407,2.0199 83.9974,110.6123 93.2194,122.3214 4.1097,5.2181 5.2059,6.0907 6.2804,5 0.716,-0.7268 22.4311,-29.191 48.2558,-63.2539 z m -2161.7684,-36.3177 c 2.3733,-3.1625 9.5149,-11.1224 15.8701,-17.6887 6.5024,-6.7183 9.4535,-10.2531 6.7491,-8.0837 -4.7194,3.7855 -4.839,3.8205 -6.6388,1.9387 -1.0081,-1.054 -39.0516,-50.5163 -84.5411,-109.9163 -45.4895,-59.4 -83.4676,-108.7906 -84.3958,-109.7568 -1.5955,-1.661 -3.5137,0.7 -35.153,43.2683 -18.406,24.7639 -33.5499,45.3545 -33.6532,45.7569 -0.1033,0.4024 13.1717,9.4374 29.5,20.0778 16.3283,10.6405 66.3628,43.4032 111.1878,72.806 44.825,29.4029 82.1212,53.8228 82.8805,54.2666 1.0838,0.6334 0.485,2.1253 -2.7873,6.944 -2.2922,3.3754 -3.98,6.1372 -3.7506,6.1372 0.2294,0 2.3589,-2.5875 4.7323,-5.75 z m 1296.0056,0 c 2.3765,-3.1625 9.068,-10.677 14.8702,-16.6988 5.8021,-6.0219 8.6845,-9.5094 6.4054,-7.75 -2.2792,1.7593 -4.5292,3.1808 -5,3.1588 -0.4709,-0.022 -12.0906,-14.5345 -25.8216,-32.25 -13.7311,-17.7155 -52.5717,-67.6577 -86.3125,-110.9827 l -61.3469,-78.7727 -9.7198,12.7727 c -5.3459,7.025 -20.8178,27.4605 -34.382,45.4122 l -24.6621,32.6396 13.1944,8.4582 c 47.9267,30.7235 212.4202,137.194 213.4354,138.1489 0.9774,0.9193 0.4939,2.2766 -2.2766,6.3905 -4.6746,6.9414 -3.7756,6.6484 1.6161,-0.5267 z m -2261.72593,-1.2904 c -1.58144,-2.3897 -2.30219,-4.395 -1.76419,-4.9084 0.50028,-0.4774 52.65961,-34.478 115.90961,-75.5567 63.25,-41.0788 115.56122,-75.2223 116.24715,-75.8744 0.98238,-0.9341 -6.30997,-11.3155 -34.34979,-48.9003 -19.57831,-26.243 -35.98949,-47.4719 -36.46928,-47.1754 -0.47979,0.2966 -21.90569,28.0829 -47.61312,61.7474 -74.77543,97.9203 -128.49889,168.1385 -129.3657,169.0851 -0.44194,0.4826 -2.9717,-0.845 -5.62613,-2.9526 -2.8674,-2.2766 -0.1381,1.0172 6.73088,8.1231 6.35471,6.5739 13.03002,13.8651 14.83403,16.2026 4.15222,5.3801 4.96511,5.4963 1.46654,0.2096 z m 1295.97563,-0.037 c -1.6859,-2.5475 -2.31,-4.3296 -1.6634,-4.75 0.5692,-0.37 51.277,-33.2376 112.684,-73.0391 61.4071,-39.8015 111.6464,-72.6515 111.643,-73 0,-0.4968 -67.8402,-90.3134 -69.3535,-91.8266 -0.2087,-0.2087 -37.9006,48.5598 -83.7599,108.3746 -45.8592,59.8147 -84.3406,109.878 -85.5143,111.2518 l -2.1338,2.4979 -4.8662,-3.8889 c -2.839,-2.2689 -0.053,1.078 6.6879,8.0343 6.3547,6.5578 13.03,13.8358 14.834,16.1733 4.1642,5.3956 4.9617,5.4911 1.4422,0.1727 z m 1296.0376,0.057 c -1.4632,-2.2112 -2.4821,-4.187 -2.2641,-4.3908 0.2179,-0.2037 51.6963,-33.5589 114.3963,-74.1226 62.7,-40.5637 114.3179,-74.0283 114.7065,-74.3658 0.5634,-0.4892 -29.0049,-39.8841 -65.1401,-86.7887 l -4.7674,-6.1882 -83.3995,108.1164 c -45.8697,59.464 -85.1078,110.2992 -87.1957,112.9672 l -3.7963,4.8509 -4.7037,-3.7279 c -2.8297,-2.2426 -0.6404,0.4352 5.4948,6.7209 5.6093,5.7469 12.0601,12.8114 14.3351,15.6989 4.9192,6.2435 6.0445,6.8363 2.3341,1.2297 z m 975.9859,-15.4262 6.6911,-7.4465 -83.8889,-107.8035 c -46.1389,-59.2919 -84.7579,-108.8651 -85.82,-110.1627 l -1.9312,-2.3592 -33.6379,44.3592 c -18.5009,24.3976 -33.588,44.8092 -33.5271,45.3592 0.1014,0.9143 223.5067,145.4783 224.8416,145.4934 0.3198,0 3.5924,-3.3443 7.2724,-7.4399 z m -2531.5072,-40.9764 c 46.8296,-23.5192 101.2097,-28.7974 151.1535,-14.6711 16.8329,4.7611 39.3075,14.6544 54,23.7707 l 5.5,3.4126 -4.1811,-3.7946 -4.1812,-3.7947 21.2266,-27.5 c 89.4445,-115.8795 157.4961,-205.4754 156.7818,-206.4169 -0.452,-0.5957 -26.9276,-35.5081 -58.8346,-77.5831 -31.907,-42.075 -72.8956,-96.075 -91.0858,-120 l -33.0731,-43.5 3.1737,-2.8566 3.1737,-2.8566 -3.5,2.1493 c -6.9462,4.2656 -25.6888,13.4063 -34.5,16.8255 -59.1017,22.9348 -125.7425,17.605 -181.5,-14.5159 -7.2159,-4.1569 -7.3529,-4.1941 -3.616,-0.9821 l 3.8841,3.3386 -89.2436,119.7473 -89.2435,119.7472 4.4444,5.7017 c 2.4444,3.1359 31.6685,41.2516 64.9424,84.7016 33.2739,43.45 71.8305,93.7973 85.6813,111.883 l 25.1833,32.8829 -4.0162,2.9536 c -5.9584,4.3818 -4.875,4.2846 2.4906,-0.2237 3.5787,-2.1904 10.4816,-5.9788 15.3397,-8.4187 z m 1296.7214,-0.5111 c 34.019,-17.5328 77.3602,-25.1757 116.6818,-20.576 16.3769,1.9157 28.3024,4.5396 43.2503,9.516 12.5387,4.1744 33.7356,14.0119 44,20.4203 l 6,3.746 -3.9332,-3.4285 -3.9333,-3.4286 24.9983,-32.4076 c 13.749,-17.8242 54.7724,-70.9955 91.163,-118.1585 l 66.1647,-85.7508 -64.7618,-84.7492 c -35.6189,-46.612 -77.0357,-100.8029 -92.0372,-120.4242 l -27.2755,-35.6751 -14.1566,6.9136 c -20.6476,10.0836 -42.1988,16.7284 -65.2284,20.1115 -10.6426,1.5634 -44.9455,1.5521 -55,-0.018 -32.7316,-5.1117 -54.3915,-12.865 -83.4674,-29.8774 -1.9566,-1.1449 -1.7903,-0.8142 0.7316,1.454 l 3.2642,2.9359 -91.1302,120.4154 c -50.1215,66.2284 -91.5215,120.9036 -91.9998,121.5005 -0.5575,0.6956 31.609,42.8112 89.6159,117.3339 49.7672,63.9368 90.4857,116.5157 90.4857,116.842 0,0.3263 -1.4625,1.8768 -3.25,3.4456 -2.6589,2.3336 -1.9994,2.1074 3.6262,-1.2436 3.7818,-2.2528 11.0681,-6.2565 16.1917,-8.8971 z m -400.5679,-40.676 c 13.475,-17.8786 25.9323,-34.4062 27.6828,-36.7282 l 3.1828,-4.2216 -69.481,-44.8385 c -38.2145,-24.6612 -69.6202,-44.6727 -69.7904,-44.4701 -0.4108,0.4893 82.7618,162.8254 83.4058,162.7913 0.275,-0.014 11.525,-14.6544 25,-32.5329 z m 1303.3333,-7.8899 c 14.571,-19.25 26.4194,-35.0517 26.3297,-35.1148 -4.9584,-3.4913 -135.9313,-87.4203 -136.085,-87.2048 -0.2125,0.298 64.94,127.4238 76.4431,149.1558 2.8636,5.4099 5.5694,9.4599 6.013,9 0.4436,-0.4599 12.7283,-16.5862 27.2992,-35.8362 z m -1553.7528,-39.75 c 20.9265,-41.3875 37.9454,-75.3988 37.8199,-75.5806 -0.2717,-0.3935 -125.3856,80.5552 -127.0445,82.1978 -0.8561,0.8476 5.3115,9.6266 24.5,34.8732 14.1043,18.5572 25.8764,33.7447 26.1603,33.75 0.2839,0.01 17.6378,-33.8529 38.5643,-75.2404 z m -1248.8545,-80.6705 1.4433,-3.4204 -2.3347,1.4991 c -49.5001,31.7846 -127.83693,83.335 -127.62113,83.9823 0.1605,0.4816 11.9907,16.5926 26.2892,35.8022 l 25.9973,34.9267 37.39143,-74.6847 c 20.5652,-41.0766 38.0408,-76.2239 38.8346,-78.1052 z m 2549.9683,77.6915 c 21.0068,-41.3687 38.0157,-75.3944 37.7974,-75.6127 -0.4506,-0.4505 -127.2573,81.6535 -128.0221,82.8909 -0.5089,0.8235 50.2847,67.9561 51.4076,67.9442 0.3426,0 17.8102,-33.8537 38.8171,-75.2224 z M 1288.7762,2907.27 c 11.3122,-15.2233 20.4606,-27.7676 20.3298,-27.8761 -2.3894,-1.9822 -100.0933,-65.4233 -100.3544,-65.1621 -0.5357,0.5357 57.9851,120.6986 58.7866,120.7086 0.3686,0 9.9257,-12.4471 21.238,-27.6704 z m 998.7867,-122.5328 c 45.018,-29.1918 81.7281,-53.1754 81.578,-53.2968 -2.2735,-1.8386 -165.0084,-106.476 -165.5342,-106.4373 -0.8994,0.066 -84.7387,109.5521 -84.7387,110.6604 0,0.4319 18,24.498 40,53.4802 l 40,52.6951 3.422,-2.0128 c 1.8821,-1.1071 40.2549,-25.897 85.2729,-55.0888 z m 383.792,3.9637 39.1125,-51.7478 -43.1798,-55.423 -43.1798,-55.4231 -4.2274,2.6708 c -2.325,1.469 -38.9286,25.156 -81.3412,52.6378 l -77.1139,49.9669 2.7214,1.7672 c 1.4967,0.972 39.3963,25.587 84.2213,54.7001 44.825,29.1131 82.0342,52.8578 82.6872,52.7659 0.653,-0.092 18.7878,-23.4535 40.2997,-51.9148 z m -1293.5054,-0.8255 c 20.8898,-28.0514 38.3172,-51.6025 38.7275,-52.3357 0.4947,-0.884 -13.4064,-19.8246 -41.2559,-56.2121 -23.1011,-30.1834 -42.5924,-55.2802 -43.314,-55.7706 -1.8032,-1.2256 -163.0066,103.4235 -161.5551,104.8773 1.8264,1.8293 167.3904,110.364 168.416,110.4043 0.55,0.022 18.0917,-22.9119 38.9815,-50.9632 z m 2206.1354,-3.4088 c 45.5857,-29.5059 82.8831,-54.0474 82.8831,-54.5368 0,-1.0952 -161.4426,-105.2449 -163.3535,-105.3824 -0.7542,-0.054 -20.2407,24.3392 -43.3033,54.2078 l -41.9319,54.3066 8.2943,10.8702 c 4.5619,5.9786 22.6944,29.7898 40.2944,52.9137 17.6,23.124 32.5026,41.8691 33.1169,41.6558 0.6143,-0.2133 38.4143,-24.529 84,-54.0349 z m 385.8316,3.1641 c 21.2033,-27.9499 38.5515,-51.2585 38.5515,-51.7969 0,-0.7518 -81.4274,-106.3256 -85.0322,-110.2476 -0.896,-0.9748 -162.1894,103.214 -161.7507,104.4843 0.4623,1.3384 167.1755,108.76 168.4814,108.5609 0.6593,-0.1005 18.5468,-23.0508 39.75,-51.0007 z M 994.98697,2781.32 c 45.38803,-29.4958 82.15403,-53.9591 81.70233,-54.3629 -0.4517,-0.4038 -32.3213,-21.3758 -70.8213,-46.6044 -38.50003,-25.2287 -75.60723,-49.5707 -82.46033,-54.0934 -6.8532,-4.5228 -12.5214,-8.1304 -12.5959,-8.0169 -0.075,0.1135 -18.45353,24.194 -40.84221,53.5124 l -40.7067,53.3061 14.26847,19.1939 c 34.23737,46.056 67.90014,90.6939 68.39504,90.6939 0.2953,0 37.6726,-24.1329 83.0606,-53.6287 z M 2845.368,2558.6952 c 39.325,-52.0564 71.96,-94.6701 72.5222,-94.6972 0.5621,-0.027 2.8121,1.3808 5,3.1286 2.1878,1.7479 -0.9889,-1.9646 -7.0593,-8.25 -6.0704,-6.2853 -12.9574,-13.6779 -15.3044,-16.4279 l -4.2673,-5 2.7007,4.2703 c 1.4854,2.3487 2.5224,4.4383 2.3044,4.6436 -0.2179,0.2052 -53.0463,34.4682 -117.3963,76.1399 -64.35,41.6717 -117.1654,75.8976 -117.3676,76.0574 -0.2022,0.1599 16.6141,22.1282 37.3695,48.8185 l 37.7371,48.5279 16.1305,-21.2816 c 8.8718,-11.7048 48.3055,-63.8731 87.6305,-115.9295 z m -721.9217,88.0035 c 19.909,-25.9875 36.5892,-47.75 37.0671,-48.3611 0.5878,-0.7515 -36.8387,-25.465 -115.6516,-76.3672 -64.0864,-41.3909 -116.7197,-75.5782 -116.963,-75.9719 -0.2433,-0.3936 0.6931,-2.4784 2.0809,-4.6327 2.2132,-3.4358 1.9973,-3.3027 -1.7571,1.0829 -2.3542,2.75 -9.2471,10.1441 -15.3175,16.4314 -6.0704,6.2873 -9.1249,9.9622 -6.7877,8.1665 2.3371,-1.7957 4.6644,-3.1149 5.1716,-2.9314 1.0268,0.3713 4.3661,4.7367 104.4802,136.5835 38.9437,51.2875 70.9579,93.25 71.1428,93.25 0.1848,0 16.6252,-21.2625 36.5343,-47.25 z m 2005.9634,-69.5033 88.1622,-116.2533 4.148,3.2021 c 2.2815,1.7612 -0.589,-1.7248 -6.3788,-7.7467 -5.7898,-6.0218 -12.7187,-13.7613 -15.3975,-17.1988 -2.6789,-3.4375 -5.0338,-6.25 -5.2333,-6.25 -0.1995,0 1.3294,2.5496 3.3975,5.6658 2.0681,3.1162 3.3102,5.8319 2.7602,6.035 -3.3403,1.2331 -235,152.1248 -235,153.0674 0,1.4976 73.7783,96.3051 74.6897,95.9787 0.3794,-0.1358 40.3627,-52.5609 88.852,-116.5002 z m -1665.7116,12.6801 c 34.8487,-69.2729 51.5301,-103.4217 50.9144,-104.2278 -27.0155,-35.375 -102.6863,-131.7131 -103.2886,-131.4991 -1.3553,0.4815 -103.9559,134.6628 -103.9559,135.9538 0,1.498 103.1844,202.8537 103.9368,202.8241 0.3098,-0.012 23.8867,-46.3851 52.3933,-103.051 z m -931.2647,-9.6768 c 45.7904,-61.4625 84.0484,-112.6028 85.0178,-113.6451 1.7217,-1.8512 1.8629,-1.818 6.0897,1.4294 2.3799,1.8285 -1.0855,-2.2687 -7.7009,-9.1049 -6.6153,-6.8362 -13.7214,-14.4544 -15.7912,-16.9294 l -3.7634,-4.5 2.7009,4.2904 c 1.5993,2.5404 2.3299,4.6453 1.7913,5.1604 -0.5003,0.4786 -51.5346,33.7713 -113.4096,73.9839 -61.875,40.2126 -112.5,73.7148 -112.5,74.4492 0,1.4328 72.5591,96.6085 73.6551,96.6133 0.3603,0 38.1199,-50.2847 83.9103,-111.7472 z m 1891.904,63.3509 c 29.4271,-38.1656 35.9161,-47.1298 34.8458,-48.138 -0.7234,-0.6814 -52.8402,-34.4128 -115.8152,-74.9586 -62.975,-40.5458 -114.8316,-74.0253 -115.237,-74.399 -0.4053,-0.3736 0.4209,-2.4626 1.836,-4.6423 2.5644,-3.9497 2.5603,-3.9479 -1.2331,0.537 -2.0933,2.475 -6.9526,7.7827 -10.7985,11.7949 -8.0976,8.4478 -8.5048,6.0138 3.6776,21.9829 106.317,139.3652 165.3424,216.0256 165.8848,215.4465 0.3732,-0.3983 16.951,-21.8289 36.8396,-47.6234 z m 295.7345,33.1451 c 3.9621,-7.8353 27.0246,-53.233 51.25,-100.8839 24.2253,-47.6508 44.0461,-87.1965 44.0461,-87.8794 0,-0.6829 -19.5032,-26.2709 -43.3405,-56.8622 -23.8373,-30.5913 -47.0206,-60.3455 -51.5186,-66.1205 -4.4979,-5.775 -8.6151,-10.5 -9.1494,-10.5 -0.5343,0 -24.1598,30.0619 -52.5012,66.8042 l -51.5297,66.8042 52.1361,101.4458 c 28.6748,55.7952 52.4211,101.444 52.7697,101.4418 0.3485,0 3.8753,-6.4147 7.8375,-14.25 z M 833.16538,2637.8606 c 18.86357,-24.7475 34.52376,-45.5852 34.80043,-46.3062 0.33058,-0.8615 -33.19868,-23.4244 -97.79739,-65.811 -54.06524,-35.4751 -103.02543,-67.5419 -108.80043,-71.2596 -5.775,-3.7177 -10.65588,-6.9023 -10.84639,-7.077 -0.19052,-0.1746 1.08885,-2.4867 2.84303,-5.1378 l 3.18943,-4.8203 -3.79035,4.5 c -2.08469,2.475 -9.21405,10.0932 -15.84303,16.9294 -6.62898,6.8362 -10.18793,10.9987 -7.90879,9.25 2.27915,-1.7487 4.52915,-3.1617 5,-3.14 0.47086,0.022 37.48221,49.0716 82.24746,109 44.76525,59.9283 81.66525,108.9397 82,108.9142 0.33475,-0.026 16.04247,-20.2943 34.90603,-45.0417 z m 208.54852,-51.8277 c -22.4652,-46.2315 -41.1715,-83.9508 -41.5695,-83.8207 -0.39803,0.1301 -13.78563,17.3186 -29.75023,38.1967 l -29.0264,37.9602 26.2501,17.2254 c 14.4375,9.474 46.05013,30.2383 70.25013,46.143 24.2,15.9047 44.1557,28.7905 44.3459,28.6352 0.1903,-0.1554 -18.0347,-38.1083 -40.5,-84.3398 z m 138.8863,-12.2102 44.7322,-90.0623 -40.3229,-52.6558 c -22.1776,-28.9608 -45.8418,-59.8559 -52.5872,-68.6559 -6.7454,-8.8 -12.5546,-16.0982 -12.9093,-16.2183 -0.7763,-0.2628 -84.645,109.4249 -84.645,110.703 0,1.2518 99.8873,206.9337 100.5,206.9435 0.275,0 20.6295,-40.52 45.2322,-90.0542 z m 1361.0491,46.175 c 44.7532,-29.0403 51.3968,-33.6645 50.3846,-35.0701 -8.4123,-11.6822 -42.2344,-53.7952 -42.7524,-53.2324 -0.9747,1.0588 -61.9135,121.7678 -61.9135,122.6395 0,0.9497 -3.9071,3.4213 54.2813,-34.337 z m 1299.5459,-2.049 c 27.5825,-17.875 50.0305,-32.874 49.8843,-33.3311 -0.4633,-1.4498 -40.1808,-52.5596 -40.8874,-52.6155 -0.3718,-0.029 -3.5762,5.6841 -7.1208,12.6966 -3.5447,7.0125 -17.1432,33.8467 -30.219,59.6317 -13.0758,25.7849 -23.3316,46.7099 -22.7906,46.5 0.541,-0.21 23.5511,-15.0067 51.1335,-32.8817 z m -2591.1298,-2.4134 c 27.3914,-17.8273 49.8026,-32.9071 49.8026,-33.5106 0,-0.6035 -9.1912,-13.0899 -20.4249,-27.7477 l -20.4248,-26.6504 -5.5638,11.411 c -3.06,6.2761 -16.4822,33.3486 -29.8271,60.1611 -13.3449,26.8125 -24.0612,48.75 -23.814,48.75 0.2472,0 22.8606,-14.586 50.252,-32.4134 z m 2374.502,15.1634 c -4.9253,-9.4875 -18.3047,-35.475 -29.732,-57.75 -11.4274,-22.275 -20.8848,-40.6399 -21.0165,-40.8109 -0.241,-0.3131 -39.0452,49.6695 -39.6348,51.0525 -0.2434,0.5711 97.5821,64.5081 99.0111,64.7118 0.1799,0.026 -3.7026,-7.7159 -8.6278,-17.2034 z m -1322.7283,-40.7544 c -15.8009,-30.8758 -29.0626,-55.7683 -29.4705,-55.3167 -5.9622,6.6015 -37.8537,49.868 -37.2226,50.4991 1.5371,1.5371 94.7113,61.5747 95.072,61.2604 0.1924,-0.1677 -12.5781,-25.567 -28.3789,-56.4428 z m 368.9604,-53.693 c 19.2877,-12.4836 72.7634,-47.1336 118.8351,-77 46.0716,-29.8664 84.1901,-54.3026 84.7078,-54.3026 0.5177,0 2.128,2.025 3.5785,4.5 4.534,7.7367 3.6167,4.9507 -2.2224,-6.75 -9.8392,-19.7163 -17.9242,-48.0196 -20.21,-70.75 -0.8546,-8.4985 -0.8548,-8.4989 -0.9876,-2.25 l -0.1329,6.25 h -103.2921 -103.2921 l -36.6331,72.6001 -36.6331,72.6 30.1752,38.8562 c 16.5964,21.3709 30.3694,38.8759 30.6067,38.9 0.2374,0.024 16.2124,-10.1701 35.5,-22.6537 z m 1327.0685,-19.8482 c 34.1,-22.0923 87.7694,-56.8621 119.2654,-77.2663 l 57.2655,-37.0986 2.6174,3.9553 c 1.4396,2.1753 2.7561,3.9552 2.9255,3.9552 0.1694,0 -2.1331,-5.0765 -5.1167,-11.2812 -9.681,-20.1328 -17.0069,-46.1916 -19.319,-68.7188 l -0.8723,-8.5 -0.1329,6.2453 -0.1329,6.2453 -102.2087,0.2547 -102.2087,0.2547 -37.3299,73.5 c -26.1623,51.5116 -37.094,73.9785 -36.5413,75.0995 2.1372,4.3346 57.8837,74.6541 58.767,74.1295 0.5619,-0.3338 28.9216,-18.6823 63.0216,-40.7746 z m -1778.2295,4.9764 c 14.7703,-19.212 27.0915,-35.4713 27.3805,-36.1318 0.289,-0.6606 -16.5018,-34.5085 -37.3128,-75.2176 l -37.8382,-74.0164 -98.75,-0.033 -98.75,-0.032 -0.1347,-6.25 c -0.1301,-6.0361 -0.1657,-5.942 -1.0408,2.75 -2.5468,25.2953 -12.0584,56.5732 -23.3397,76.75 -3.501,6.2616 -2.62,6.0953 1.3245,-0.2501 l 3.1082,-5 10.7912,6.9587 c 5.9352,3.8273 59.1663,38.2349 118.2913,76.4615 59.125,38.2266 107.931,69.3765 108.4577,69.2221 0.5267,-0.1543 13.0425,-15.9995 27.8128,-35.2114 z m 1300.6999,-2.2877 28.0403,-36.3569 -16.4828,-32.1431 c -9.0656,-17.6787 -26.0763,-50.8181 -37.8016,-73.6431 l -21.3188,-41.5 -99.2038,0.3168 -99.2037,0.3168 -0.1681,-6.3168 c -0.1138,-4.2748 -0.2809,-5.0237 -0.5172,-2.3168 -2.3609,27.0539 -9.1143,51.5713 -20.9346,76 -2.3951,4.95 -3.573,7.8994 -2.6174,6.5543 0.9555,-1.3452 2.4123,-3.2566 3.2373,-4.2477 1.4069,-1.6902 8.7914,2.9089 119,74.1141 64.625,41.7539 118.0468,75.8404 118.7151,75.7477 0.6683,-0.093 13.8332,-16.529 29.2553,-36.5253 z m -2062.4451,-38.7097 c 63.0619,-41.0116 115.2338,-74.7875 115.9376,-75.0575 0.7487,-0.2873 2.3877,1.3998 3.9505,4.0665 1.469,2.5067 2.9136,4.5576 3.2103,4.5576 0.2967,0 -0.3556,-1.4625 -1.4496,-3.25 -3.513,-5.74 -10.9108,-23.0924 -14.6365,-34.3316 -4.1381,-12.4831 -8.04,-30.7876 -9.3621,-43.9184 -0.8751,-8.692 -0.9107,-8.7861 -1.0408,-2.75 l -0.1347,6.25 h -100.0163 -100.0164 l -35.0262,70.7471 c -24.6566,49.8023 -34.7915,71.2277 -34.2336,72.3702 0.7282,1.4913 57.5591,75.8716 57.9762,75.8793 0.101,0 51.7798,-33.5515 114.8416,-74.5632 z m -520.58973,21.1239 c 20.3957,-26.6434 37.3406,-49.1135 37.6553,-49.9335 0.321,-0.8367 -11.6093,-26.5306 -27.1897,-58.5573 l -27.7618,-57.0665 H 809.18769 698.36799 l -0.1681,-6.25 c -0.11548,-4.2936 -0.27738,-4.9979 -0.51717,-2.25 -2.46122,28.2033 -11.57935,59.5394 -24.00574,82.5 -1.33948,2.475 -1.61948,3.3994 -0.62221,2.0543 0.99727,-1.3452 2.54153,-3.3462 3.43169,-4.4467 1.80974,-2.2374 -11.92451,-10.9837 154.85106,98.6129 36.59176,24.0464 67.05976,43.7339 67.70667,43.75 0.6469,0.016 17.86358,-21.7697 38.25938,-48.4132 z m 694.06443,-27.9349 c 0,-0.2076 -0.7875,-0.9951 -1.75,-1.75 -1.5861,-1.2438 -1.6214,-1.2085 -0.3776,0.3776 1.3064,1.6657 2.1276,2.1955 2.1276,1.3724 z m -1115.41361,-5.0393 c 45.54449,-8.066 84.98194,-35.1242 109.40547,-75.0635 39.82325,-65.1222 26.47342,-151.6793 -31.22333,-202.4444 -47.87577,-42.124 -115.73044,-51.7657 -174.10524,-24.7392 -32.22213,14.9183 -61.42339,44.055 -76.19529,76.0269 -29.18357,63.164 -16.32243,134.3567 33.08419,183.1371 24.94173,24.6256 58.94097,40.7335 93.9478,44.5099 10.5656,1.1397 34.95203,0.368 45.0864,-1.4268 z m 1276.00001,0 c 45.5445,-8.066 84.9819,-35.1242 109.4055,-75.0635 39.8232,-65.1222 26.4734,-151.6793 -31.2234,-202.4444 -62.9888,-55.4214 -158.3401,-52.8269 -217.739,5.9248 -26.5432,26.254 -41.622,56.6702 -46.5895,93.978 -8.8785,66.6816 26.6009,133.0892 87.06,162.9522 18.2713,9.0248 35.1256,14.0436 54,16.0797 10.5656,1.1397 34.952,0.368 45.0864,-1.4268 z m 2437.4136,1.0393 c 0,-0.2076 -0.7875,-0.9951 -1.75,-1.75 -1.5861,-1.2438 -1.6214,-1.2085 -0.3776,0.3776 1.3064,1.6657 2.1276,2.1955 2.1276,1.3724 z m 148.2353,-1.6265 c 14.9185,-1.2362 24.582,-3.2092 37.7647,-7.7103 33.7253,-11.5153 61.0219,-32.1961 81.005,-61.3723 29.3812,-42.8977 35.968,-98.4461 17.4396,-147.0727 -14.7152,-38.619 -43.164,-69.3824 -80.8329,-87.4096 -79.8198,-38.1993 -176.2284,-3.5433 -213.5498,76.7647 -25.123,54.0597 -18.1955,117.9116 17.8531,164.5553 27.792,35.9604 68.7434,58.6261 112.3978,62.2098 13.4132,1.1011 15.0334,1.1032 27.9225,0.035 z m -2055.7439,-79.9971 39.4839,-51.4988 -66.1471,-0.2572 c -36.381,-0.1414 -66.3392,-0.065 -66.5738,0.1695 -0.6534,0.6534 52.1394,103.5559 52.9993,103.3051 0.4146,-0.121 18.5215,-23.3943 40.2377,-51.7186 z m 1300.8468,-1.5617 39.3124,-50.9371 -65.9848,-0.2572 c -36.2916,-0.1414 -66.1892,-0.053 -66.439,0.1971 -0.2499,0.2499 11.4094,23.6193 25.9094,51.9321 14.5001,28.3128 26.7071,51.1459 27.1267,50.7401 0.4195,-0.4058 18.4534,-23.6595 40.0753,-51.675 z m 245.0549,-0.371 c 14.0838,-27.7386 25.6069,-50.5761 25.6069,-50.75 0,-0.1739 -29.9148,-0.3161 -66.4773,-0.3161 h -66.4773 l 40.1118,51.5655 c 22.0615,28.361 40.4532,51.1985 40.8704,50.75 0.4172,-0.4485 12.2816,-23.5108 26.3655,-51.2494 z m -1301.6431,0.9918 c 13.8875,-27.4421 25.25,-50.1564 25.25,-50.4763 0,-0.3199 -29.2279,-0.5816 -64.9508,-0.5816 h -64.9508 l 39.2008,50.4558 c 21.5604,27.7506 39.4258,50.4649 39.7008,50.4762 0.275,0.011 11.8625,-22.4321 25.75,-49.8741 z m -1268.0342,-50.6754 c -0.2189,-0.2189 -27.9121,-0.282 -61.5404,-0.1402 l -61.1425,0.2577 37.2336,48.6409 37.2335,48.6409 24.3069,-48.5007 c 13.3688,-26.6753 24.1278,-48.6797 23.9089,-48.8986 z m -260.236,33.6175 25.5735,-33.5 -22.0266,-0.2691 c -12.1147,-0.1481 -31.8471,-0.1481 -43.84973,0 l -21.8231,0.2691 17.0093,34.778 c 13.75613,28.1263 17.25163,34.5336 18.27623,33.5 0.6968,-0.7029 12.775,-16.353 26.8404,-34.778 z m -240.84876,-84 c 58.41654,0 98.3999,-0.3687 98.20228,-0.9055 -0.18333,-0.4981 -17.86595,-36.9597 -39.2947,-81.0259 -26.55868,-54.6154 -39.372,-79.9628 -40.25131,-79.6254 -0.70947,0.2723 -31.91754,20.7589 -69.35128,45.5259 -37.43374,24.767 -68.44645,45.0309 -68.91713,45.0309 -0.47069,0 -1.82919,-1.575 -3.01891,-3.5 -3.65177,-5.9087 -3.03112,-3.9402 1.97057,6.25 6.1073,12.4427 9.03566,19.9512 13.35781,34.25 3.62295,11.9857 7.53269,32.5555 7.8643,41.3753 0.18583,4.9426 0.2053,4.9026 0.54772,-1.1253 l 0.35503,-6.25 z m 760.83066,-12.6986 c 3.4915,-19.1826 12.1967,-44.7013 20.2296,-59.3014 3.7279,-6.7757 3.3384,-7.1441 -0.8542,-0.8077 l -2.4432,3.6922 -60.2799,-39.4422 c -33.1539,-21.6933 -60.6122,-39.4423 -61.0182,-39.4423 -0.4061,0 -17.1623,33.1875 -37.2359,73.75 l -36.4976,73.75 87.3188,0.2555 87.3189,0.2554 0.1363,6.2446 0.1362,6.2445 0.7936,-8.1986 c 0.4365,-4.5092 1.5145,-12.1592 2.3956,-17 z m 1300.0149,0 c 3.467,-18.873 9.28,-36.5266 17.9482,-54.507 2.4644,-5.1119 3.7145,-8.1938 2.7779,-6.8487 -0.9365,1.3452 -2.4033,3.3119 -3.2595,4.3705 -1.495,1.8485 -4.0028,0.3524 -63.2136,-37.7131 -33.9112,-21.8008 -62.268,-39.8725 -63.015,-40.1591 -0.9641,-0.37 -12.1454,20.8377 -38.5364,73.0924 -20.448,40.4875 -37.1782,73.8049 -37.1782,74.0386 0,0.2338 40.725,0.425 90.5,0.425 h 90.5 l 0.1363,6.25 0.1362,6.25 0.7936,-8.1986 c 0.4365,-4.5092 1.5212,-12.1592 2.4105,-17 z m 502.2156,12.3806 c 47.0828,-0.3553 85.7725,-0.8134 85.9771,-1.0179 0.2734,-0.2735 -71.9166,-141.773 -73.181,-143.4418 -0.2206,-0.2912 -117.3354,75.3994 -118.875,76.8282 -0.5039,0.4676 0.8625,4.843 3.1654,10.1362 8.183,18.8082 14.3142,42.4596 15.9681,61.5974 0.7458,8.6299 0.7561,8.6559 1.0467,2.6299 l 0.2934,-6.0859 z m -1300.1423,0.318 c 46.9976,0 85.4501,-0.2856 85.4501,-0.6346 0,-0.4847 -72.6475,-142.9444 -73.4951,-144.122 -0.1016,-0.1411 -26.2255,16.6715 -58.0531,37.3614 -31.8276,20.6898 -58.4111,37.8261 -59.0745,38.0807 -0.6633,0.2545 -2.4124,-1.5956 -3.8867,-4.1114 -1.4744,-2.5157 -2.8326,-4.5741 -3.0183,-4.5741 -0.1857,0 2.5016,5.9625 5.9719,13.25 6.9342,14.5615 10.397,24.0718 14.07,38.6425 2.4388,9.6748 5.3244,26.8871 5.6749,33.8509 0.1208,2.4012 0.3193,1.682 0.5499,-1.9934 l 0.3608,-5.75 z m 2098.9723,-19.7053 c 3.7479,-18.5103 12.555,-43.0769 20.092,-56.0447 3.4511,-5.9378 2.2227,-5.3314 -1.5192,0.75 -1.6921,2.75 -3.3252,5 -3.6292,5 -0.304,0 -27.9521,-17.55 -61.4403,-39 -33.4882,-21.45 -61.2835,-39 -61.7674,-39 -0.6037,0 -69.1799,133.4464 -75.0083,145.9628 -0.1375,0.2955 40.025,0.3823 89.25,0.1931 l 89.5002,-0.3442 0.1329,5.8442 c 0.1261,5.5457 0.1779,5.4127 1.0152,-2.6052 0.4852,-4.6472 2.0036,-13.9874 3.3741,-20.756 z m -3086.2468,18.4553 c -0.5332,-0.6875 -35.0921,-45.8 -76.79763,-100.25 -41.7054,-54.45 -79.1917,-103.3875 -83.3028,-108.75 -4.11117,-5.3625 -7.83758,-9.75 -8.28095,-9.75 -1.43779,0 -44.89403,29.1366 -44.89403,30.1006 0,0.8073 13.14548,27.9945 80.09408,165.6494 l 11.794,24.25 h 61.17843 c 48.7931,0 60.9821,-0.2531 60.2089,-1.25 z m 294.3711,-86.2871 c 23.9225,-48.1455 43.347,-87.9825 43.1656,-88.5267 -0.5226,-1.5676 -73.241,-48.9005 -73.942,-48.1293 -0.3464,0.3812 -30.6868,40.0681 -67.4232,88.1931 -36.7363,48.125 -74.7362,97.85 -84.4443,110.5 -9.708,12.65 -17.9816,23.5625 -18.3858,24.25 -0.5853,0.9957 15.3668,1.25 78.3997,1.25 h 79.1346 z m 916.5426,-9.7129 c -41.6358,-53.4875 -80.1597,-103.0074 -85.6086,-110.0443 -5.449,-7.0369 -10.4219,-12.5968 -11.0511,-12.3554 -2.543,0.9759 -72.5294,46.9438 -72.5294,47.6383 0,0.6975 85.5553,168.0144 87.3166,170.7614 0.63,0.9826 17.5728,1.25 79.1877,1.25 h 78.3863 z m 377.6444,9.7749 c 24.2916,-48.1113 44.1665,-87.6728 44.1665,-87.9144 0,-0.6486 -72.0486,-46.9089 -72.3875,-46.4779 -0.1589,0.2021 -38.0062,49.6424 -84.1051,109.8674 -46.0988,60.225 -84.2517,110.0625 -84.7842,110.75 -0.7726,0.9976 14.5734,1.25 75.9879,1.25 h 76.9559 z m 995.9998,85.5776 c -0.7314,-1.9692 -168.3949,-217.0106 -169.2334,-217.0549 -1.0271,-0.054 -6.2677,3.2458 -44.8499,28.2437 -15.2625,9.8887 -27.75,18.303 -27.75,18.6983 0,0.3953 13.0511,26.0969 29.0023,57.1146 15.9513,31.0177 35.6388,69.3331 43.75,85.1454 l 14.7477,28.7496 77.3333,4e-4 c 45.2462,2e-4 77.1951,-0.372 77,-0.8971 z m 306.0221,-86.021 c 24.2795,-47.8052 44.1238,-87.2927 44.0983,-87.75 -0.046,-0.8207 -68.0946,-44.6809 -71.1283,-45.845 -1.1718,-0.4497 -22.7693,26.8934 -85.8637,108.7063 -46.3639,60.119 -84.7274,109.8697 -85.2523,110.5572 -0.7615,0.9975 14.699,1.25 76.5236,1.25 h 77.4778 z m -1530.208,45.1253 c 11.631,-15.2387 51.7935,-67.7005 89.25,-116.5817 37.4564,-48.8812 68.1026,-89.2092 68.1026,-89.6177 0,-0.9935 -177.95,-115.2546 -179.7182,-115.3964 -2.0974,-0.1683 -180.2647,115.7121 -180.0065,117.0766 0.2634,1.3922 179.9338,232.3331 180.7038,232.2692 0.2865,-0.024 10.0372,-12.5113 21.6683,-27.75 z m 1369.3333,-89.5956 c 73.1647,-94.8443 89.9203,-117.1176 88.8448,-118.1021 -0.729,-0.6673 -40.2505,-26.1048 -87.8255,-56.5279 -47.575,-30.423 -87.5014,-55.959 -88.7253,-56.7467 -2.1119,-1.3592 -6.8364,1.5583 -92.7624,57.2823 -49.7955,32.293 -90.725,59.0183 -90.9545,59.3898 -0.5549,0.8977 179.5281,232.2405 180.4984,231.8764 0.4148,-0.1557 41.3308,-52.883 90.9245,-117.1718 z m -2667.9807,90.2039 c 7.975,-10.5079 47.2263,-61.9025 87.2251,-114.2102 39.9988,-52.3077 72.6238,-95.4326 72.5,-95.8331 -0.1238,-0.4006 -26.1001,-17.6637 -57.7251,-38.3625 -31.625,-20.6988 -70.1993,-45.9462 -85.7206,-56.1053 l -28.2206,-18.4711 -87.9816,58.2578 c -59.53023,39.4185 -87.75453,58.6551 -87.27943,59.4863 1.426,2.4949 171.72003,224.3611 172.20223,224.3524 0.275,0 7.025,-8.6064 15,-19.1143 z m 482.439,-81.3767 c 7.1836,-7.1838 16.9688,-15.9588 21.7451,-19.5 56.2068,-41.672 127.5538,-52.7873 194.7421,-30.3391 11.4309,3.8192 34.5904,15.3289 46.0552,22.8884 17.0564,11.2465 36.8065,29.0311 48.0434,43.2623 4.9374,6.2531 6.0495,6.8305 2.3298,1.2096 -1.5827,-2.3916 -2.3026,-4.3955 -1.7642,-4.9105 0.5003,-0.4786 27.6846,-18.2756 60.4096,-39.5489 35.2693,-22.9272 59.4432,-39.2545 59.3606,-40.0927 -0.077,-0.7777 -21.1793,-42.4751 -46.8946,-92.6608 -25.7153,-50.1857 -74.59,-145.5564 -108.6105,-211.935 -34.0205,-66.3785 -61.8555,-120.9324 -61.8555,-121.2308 0,-0.2984 2.1375,-1.7014 4.75,-3.1177 2.6125,-1.4164 3.85,-2.255 2.75,-1.8636 -1.1,0.3914 -6.275,2.2442 -11.5,4.1175 -20.433,7.3256 -39.58,10.9306 -63.5,11.9559 -27.3964,1.1742 -57.6599,-3.9885 -82.4224,-14.0607 -8.4837,-3.4507 -8.9474,-3.2297 -1.4392,0.6862 l 6.1383,3.2015 -104.3754,210 c -57.4064,115.5 -104.3812,210.5045 -104.3883,211.1211 -0.01,0.6165 22.5995,15.8985 50.237,33.9599 27.6375,18.0614 55.9935,36.5921 63.0134,41.1793 l 12.7634,8.3403 -3.0744,4.6997 -3.0744,4.6997 3.75,-4.5 c 2.0626,-2.475 9.6275,-10.3777 16.811,-17.5616 z m 1298.0276,1.723 c 62.6288,-64.5339 159.9372,-81.4103 241.0976,-41.814 25.2503,12.319 44.5987,26.8116 64.1406,48.0437 l 5.7952,6.2965 61.5,-39.9352 c 34.9319,-22.683 61.4429,-40.5263 61.3678,-41.3035 -0.073,-0.7526 -31.3164,-62.024 -69.4304,-136.1586 -38.1141,-74.1347 -87.2009,-169.6266 -109.082,-212.2044 -21.881,-42.5778 -40.1701,-77.8006 -40.6425,-78.273 -0.4784,-0.4784 -2.4985,-0.1737 -4.5609,0.688 -5.2726,2.2031 -25.2869,7.2524 -36.5639,9.2246 -7.1351,1.2478 -15.2165,1.6589 -31.5881,1.6068 -31.8373,-0.1014 -44.7775,-2.58 -82,-15.7068 -1.1,-0.3879 0.3625,0.5307 3.25,2.0414 2.8875,1.5107 5.25,3.1206 5.25,3.5776 0,0.7448 -128.4246,255.6926 -189.0435,375.2883 l -23.8393,47.0327 63.6914,40.872 c 35.0303,22.4795 64.3176,41.4446 65.083,42.1446 1.1813,1.0802 1.0646,1.8505 -0.7719,5.0953 -2.0136,3.5575 -1.8697,3.4759 2.0749,-1.1774 2.3312,-2.75 8.7536,-9.6524 14.272,-15.3386 z m -788.6249,-118.1614 c 16.5634,-10.725 29.9329,-20.0137 29.7098,-20.6416 -0.223,-0.6278 -42.4118,-55.0778 -93.7527,-121 -51.341,-65.9221 -108.3672,-139.2084 -126.7249,-162.8584 -18.3577,-23.65 -33.821,-43.45 -34.363,-44 -1.0269,-1.0421 7.2266,15.2088 62.2156,122.5 18.1817,35.475 54.3187,105.9886 80.3045,156.6969 l 47.2469,92.1969 2.6242,-1.6969 c 1.4433,-0.9333 16.1761,-10.4719 32.7396,-21.1969 z m 1298.6651,1.5666 c 17.0537,-11.0366 31.1546,-20.4339 31.3352,-20.8829 0.1807,-0.449 -52.9224,-69.2342 -118.0068,-152.8562 -65.0843,-83.6219 -121.8576,-156.6046 -126.1628,-162.1837 -4.3052,-5.5791 -8.2987,-10.5938 -8.8744,-11.1438 -1.3315,-1.2719 15.6837,32.0528 111.1661,217.7217 45.2344,87.9599 77.8951,150.3779 78.5,150.0216 0.5698,-0.3355 14.989,-9.64 32.0427,-20.6767 z m -641.0068,-92.1258 c 30.25,-59.9246 71.5267,-141.6884 91.7261,-181.6973 20.1994,-40.0089 36.5406,-72.7435 36.3139,-72.7435 -0.2266,0 -12.0568,15.1875 -26.2892,33.75 -14.2324,18.5625 -59.8533,78.075 -101.3798,132.25 -41.5265,54.175 -85.2827,111.2334 -97.236,126.7964 -11.9534,15.563 -21.9348,28.838 -22.181,29.5 -0.4689,1.2607 61.2454,41.7019 63.046,41.3138 0.55,-0.1186 25.75,-49.2448 56,-109.1694 z m 1321,-36.1562 c 96.5745,-190.1474 112.7148,-222.1021 111.2324,-220.2188 -0.6778,0.8612 -54.1074,70.1009 -118.7324,153.8659 -64.625,83.765 -120.7475,156.488 -124.7167,161.6066 l -7.2166,9.3066 15.2166,9.5318 c 8.3692,5.2424 22.8667,14.4891 32.2167,20.5482 9.35,6.0591 17.225,11.0263 17.5,11.0382 0.275,0.012 33.8,-65.5434 74.5,-145.6785 z m -2650.9815,104.4654 c 10.925,-22.1375 52.1501,-105.1625 91.6112,-184.5 39.4612,-79.3375 71.5998,-144.25 71.4192,-144.25 -0.2833,0 -58.8195,76.4639 -213.1321,278.4069 -27.0909,35.4528 -36.2578,48.1193 -35.2622,48.7242 0.74,0.4495 15.2954,10.0234 32.3454,21.2753 17.05,11.2518 31.4848,20.4884 32.0774,20.5257 0.5926,0.037 10.016,-18.0446 20.9411,-40.1821 z m -598.49838,14.2365 c 9.88893,-6.6074 17.97003,-12.3449 17.958,-12.75 -0.0208,-0.7003 -130.03511,-170.6416 -132.15277,-172.7365 -1.72304,-1.7045 0.79974,3.5783 43.69587,91.5 22.94303,47.025 43.88972,90.1125 46.5482,95.75 2.65848,5.6375 5.08948,10.25 5.40222,10.25 0.31274,0 8.65956,-5.4061 18.54848,-12.0135 z m 2727.85538,-92.991 c 45.1685,-29.2395 82.1129,-53.4627 82.0988,-53.8292 -0.014,-0.3664 -27.1266,-17.9707 -60.25,-39.1206 -33.1234,-21.1499 -133.495,-85.3874 -223.048,-142.75 -89.5531,-57.3626 -163.215,-104.2957 -163.6933,-104.2957 -0.4783,0 -1.574,1.0125 -2.435,2.25 -0.861,1.2375 -5.949,6.7268 -11.3067,12.1983 -6.2068,6.3387 -8.0056,8.5722 -4.9577,6.1555 3.5567,-2.82 5.1121,-3.5203 6.0641,-2.7302 0.7043,0.5845 66.9517,85.4499 147.2164,188.5897 80.2647,103.1398 146.4424,187.3398 147.0614,187.111 0.619,-0.2288 38.0815,-24.3392 83.25,-53.5788 z m -2584.87553,-1.7444 c 42.62503,-28.2126 77.59453,-51.623 77.71013,-52.0233 0.1156,-0.4003 -7.7594,-5.8976 -17.5,-12.2162 -9.7406,-6.3186 -43.5851,-28.4101 -75.21013,-49.0921 -31.625,-20.6821 -103.84998,-67.907 -160.49998,-104.9442 -56.65,-37.0373 -117.4,-76.7799 -135,-88.3169 -17.6,-11.5371 -35.05391,-22.9375 -38.78647,-25.3343 l -6.78647,-4.3577 3.09748,-4.7332 3.09748,-4.7332 -3.78454,4.5 c -2.0815,2.475 -8.97145,9.8655 -15.31101,16.4233 -6.64859,6.8774 -9.49265,10.2984 -6.72054,8.0837 4.71947,-3.7705 4.83891,-3.8051 6.63894,-1.9233 1.00816,1.054 15.42876,19.6913 32.04578,41.4163 16.61702,21.725 80.65289,105.2666 142.30194,185.648 l 112.08919,146.148 2.5591,-1.6248 c 1.4075,-0.8935 37.4341,-24.7076 80.0591,-52.9201 z m 1284.21973,1.0937 c 44.4292,-28.9022 80.7803,-52.8448 80.7803,-53.2058 0,-0.361 -22.3875,-15.0163 -49.75,-32.5673 -205.0567,-131.5288 -390.9785,-251.0761 -392.1416,-252.1461 -1.1819,-1.0873 -1.0674,-1.8565 0.7595,-5.103 l 2.1512,-3.8226 -3.7364,4.5 c -2.0551,2.475 -8.4719,9.4196 -14.2596,15.4326 -5.7877,6.0129 -8.6583,9.5004 -6.3792,7.75 2.2792,-1.7505 4.5292,-3.1675 5,-3.149 0.4709,0.018 16.6271,20.3809 35.9028,45.25 38.9667,50.274 243.7228,313.3162 252.2345,324.0358 3.9089,4.9229 5.8657,6.6463 7.0365,6.1971 0.8919,-0.3423 37.9728,-24.2696 82.402,-53.1717 z m 385.8245,-8.3448 c 25.4913,-33.275 89.9734,-117.3953 143.2936,-186.934 53.3202,-69.5387 96.9944,-126.9723 97.054,-127.6303 0.06,-0.658 -3.0208,-4.4513 -6.8452,-8.4295 -5.4486,-5.6678 -7.2882,-7.024 -8.5,-6.2667 -0.8506,0.5316 -93.7966,60.9655 -206.5466,134.2976 -112.75,73.332 -210.735,137.0307 -217.7444,141.5525 l -12.7444,8.2214 82.6501,53.1055 c 45.4576,29.208 82.7367,52.988 82.8425,52.8445 0.1059,-0.1436 21.049,-27.486 46.5404,-60.761 z m 1268.1104,43.75 c 19.5567,-25.4142 65.1249,-84.4983 174.7227,-226.5469 l 101.3023,-131.2969 4.6602,3.7224 c 2.7099,2.1645 0.242,-0.8499 -5.8972,-7.2031 -5.8066,-6.009 -12.3091,-13.1755 -14.45,-15.9255 -6.4876,-8.3333 -6.6706,-7.9831 -0.6801,1.3013 0.855,1.3253 1.1037,2.6333 0.5862,3.0841 -0.4943,0.4304 -49.1693,32.0198 -108.1666,70.1986 -252.9523,163.6922 -328.7321,213.0087 -328.7321,213.9341 0,1.0683 161.3097,104.8728 163.075,104.9406 0.5912,0.023 6.7021,-7.2712 13.5796,-16.2087 z m -2577.4876,-30 c 97.8315,-128.1271 248.6396,-325.362 249.3604,-326.1269 0.4609,-0.489 2.9595,0.8173 5.6495,2.9537 2.999,2.3818 0.6489,-0.5012 -6.214,-7.6232 -6.0704,-6.2995 -12.9664,-13.7036 -15.3245,-16.4536 l -4.2874,-5 3.0745,4.6802 c 1.691,2.5741 3.0745,4.9574 3.0745,5.2962 0,0.3389 -30.2625,20.6932 -67.25,45.2319 -97.2722,64.5335 -315.8858,209.3402 -339,224.5492 -10.8625,7.1474 -19.7301,13.2759 -19.7058,13.6189 0.032,0.4443 155.1066,102.462 156.6458,103.0509 0.1044,0.04 15.3941,-19.8398 33.977,-44.1773 z m -199.8873,-113.0782 c 20.1961,-13.3805 91.6203,-60.7048 158.7203,-105.1652 199.8126,-132.3956 248.5031,-164.5066 249.4436,-164.5066 0.4913,0 1.8667,1.575 3.0564,3.5 3.7123,6.0066 3.1112,3.8573 -1.4682,-5.25 -11.6303,-23.1296 -19.044,-48.5323 -21.4657,-73.5514 l -0.7936,-8.1986 -0.1362,6.25 -0.1363,6.25 h -428 -428.00001 l -0.13626,-6.25 -0.13627,-6.25 -0.80366,8.3245 c -2.38622,24.7167 -9.47186,49.0748 -21.14091,72.6755 -4.96929,10.0504 -5.12703,11.1199 -0.63958,4.3366 l 2.4235,-3.6634 131.96659,86.3386 c 72.58162,47.4862 174.26657,114.034 225.9666,147.8839 51.7,33.85 94.1258,61.5586 94.2797,61.5748 0.1538,0.016 16.8038,-10.9182 37,-24.2987 z m 1402.7203,-73.9552 c 82.5,-53.6407 184.8116,-120.1619 227.359,-147.8249 42.5475,-27.6631 77.5495,-50.7925 77.7821,-51.3989 0.2327,-0.6063 -1.1591,-4.5743 -3.0929,-8.8177 -7.8226,-17.1654 -14.5263,-42.6202 -16.4316,-62.3922 -0.8223,-8.5333 -0.8501,-8.6053 -0.9815,-2.5329 l -0.1351,6.25 h -440 -440 l -0.1351,-6.25 c -0.1314,-6.0724 -0.1592,-6.0004 -0.9815,2.5329 -2.1303,22.1067 -8.8701,46.1737 -18.9639,67.7171 -3.2211,6.875 -5.0833,11.3994 -4.1381,10.0543 0.9452,-1.3452 2.4253,-3.3195 3.289,-4.3873 1.5118,-1.8692 8.6607,2.6127 191.5,120.0589 104.4613,67.1002 208.6046,133.988 231.4296,148.6394 22.825,14.6515 41.95,26.4682 42.5,26.2594 0.55,-0.2087 68.5,-44.2674 151,-97.9081 z m 1160.0289,92.4596 c 4.9341,-3.2031 62.2961,-40.4059 127.4711,-82.6728 242.0041,-156.9431 320.2238,-207.5034 321.0198,-207.5034 0.4494,0 1.7905,1.575 2.9802,3.5 1.1897,1.925 2.3201,3.5 2.512,3.5 0.192,0 -2.1313,-5.218 -5.1628,-11.5955 -10.3455,-21.7647 -17.6018,-48.8146 -19.262,-71.8049 l -0.8016,-11.0996 -0.1428,9.25 -0.1428,9.25 h -442 -442 l -0.1351,-6.25 c -0.1314,-6.0724 -0.1592,-6.0004 -0.9815,2.5329 -1.896,19.6755 -8.8258,45.7874 -16.7627,63.1628 -2.4273,5.3137 -2.8729,7.1231 -1.8967,7.7009 0.7018,0.4154 105.451,67.5609 232.776,149.2123 127.325,81.6514 231.963,148.4985 232.5289,148.5491 0.5659,0.051 5.0659,-2.5287 10,-5.7318 z M 2951.868,1652.9487 c -0.3399,-0.55 -1.154,-0.9931 -1.809,-0.9847 -0.7156,0.01 -0.5923,0.4022 0.309,0.9847 1.9211,1.2415 2.2673,1.2415 1.5,0 z m -1301.5,-0.3505 c 0,-0.1928 -2.25,-1.7492 -5,-3.4587 -2.75,-1.7095 -5,-2.8919 -5,-2.6275 0,0.447 9.0225,6.4367 9.6958,6.4367 0.1673,0 0.3042,-0.1577 0.3042,-0.3505 z m 221.5674,-5.7586 c 0.3734,-0.6041 -0.5016,-0.3249 -1.9443,0.6204 -1.4427,0.9453 -2.6231,1.9078 -2.6231,2.1389 0,0.7234 3.854,-1.6049 4.5674,-2.7593 z m 2377.4326,2.7241 c 0,-0.2117 -1.2375,-1.1384 -2.75,-2.0593 l -2.75,-1.6744 2.3608,2.0593 c 2.3037,2.0096 3.1392,2.4553 3.1392,1.6744 z m -3632.87245,-18.365 c 1.24387,-1.5861 1.2085,-1.6214 -0.37756,-0.3776 -0.9625,0.7549 -1.75,1.5424 -1.75,1.75 0,0.8231 0.82119,0.2933 2.12756,-1.3724 z m 2576.00005,0 c 1.2438,-1.5861 1.2085,-1.6214 -0.3776,-0.3776 -1.6657,1.3064 -2.1955,2.1276 -1.3724,2.1276 0.2076,0 0.9951,-0.7875 1.75,-1.75 z m -2684.54121,-2.644 c 53.33657,-9.5968 98.48566,-45.407 119.27805,-94.606 21.18271,-50.1225 16.06383,-106.7549 -13.69378,-151.5 -32.20331,-48.4226 -87.92764,-75.481 -145.616,-70.7075 -21.89545,1.8117 -36.80328,5.6592 -55.20857,14.2485 -33.40514,15.5894 -61.87808,43.8563 -76.87809,76.3219 -18.05367,39.0748 -20.18944,82.8198 -5.98753,122.6371 14.06136,39.4232 43.69411,72.1504 81.88302,90.4336 13.98608,6.696 31.40659,11.9592 48.1365,14.5435 8.19458,1.2658 38.18328,0.4107 48.0864,-1.3711 z m 2576.00001,-0.023 c 53.1119,-9.4062 98.4868,-45.3868 119.2781,-94.5831 30.2466,-71.5697 5.8841,-153.4548 -58.3645,-196.1686 -46.6036,-30.9832 -105.496,-35.223 -157.2317,-11.3197 -26.3428,12.1711 -53.1465,36.4615 -68.6224,62.1879 -21.3553,35.4999 -27.9833,81.4901 -17.5537,121.8004 7.5328,29.1142 21.543,53.3094 43.4286,75 24.7657,24.5451 58.9386,40.7298 93.9792,44.5099 10.5656,1.1397 34.952,0.368 45.0864,-1.4268 z m 1292.9136,1.383 c 53.1691,-4.9898 102.2154,-38.6664 126.4174,-86.8018 36.0639,-71.7275 13.292,-159.8108 -52.8156,-204.294 -17.4411,-11.736 -32.7083,-18.4381 -53.1018,-23.3109 -60.3903,-14.4298 -123.4582,7.3928 -162.2818,56.1522 -33.3085,41.833 -43.2881,99.3458 -26.0646,150.2117 13.7328,40.5568 42.9252,73.997 80.7484,92.4982 27.3633,13.3847 55.8807,18.4743 87.098,15.5446 z" fill="#000000"/></g><text x="0" y="2986.8528" fill="#000000" font-size="5px" font-weight="bold" font-family="'Helvetica Neue', Helvetica, Arial-Unicode, Arial, Sans-serif">Created by Lucas Rathgeb</text><text x="0" y="2991.8528" fill="#000000" font-size="5px" font-weight="bold" font-family="'Helvetica Neue', Helvetica, Arial-Unicode, Arial, Sans-serif">from the Noun Project</text></svg>