<svg xmlns="http://www.w3.org/2000/svg" version="1.1" viewBox="-5.0 -10.0 110.0 135.0">
 <path d="m93.75 45.312c-2.0352 0-3.7734 1.3047-4.418 3.125h-9.6445v-7.8125h10.938c0.86328 0 1.5625-0.69922 1.5625-1.5625s-0.69922-1.5625-1.5625-1.5625h-10.938v-7.8125h7.8125c0.86328 0 1.5625-0.69922 1.5625-1.5625s-0.69922-1.5625-1.5625-1.5625h-7.9688c-0.625-3.0547-3.0352-5.4688-6.0938-6.0938v-7.9688c0-0.86328-0.69922-1.5625-1.5625-1.5625s-1.5625 0.69922-1.5625 1.5625v7.8125h-7.8125v-10.938c0-0.86328-0.69922-1.5625-1.5625-1.5625s-1.5625 0.69922-1.5625 1.5625v10.938h-7.8125v-9.6445c1.8203-0.64453 3.125-2.3828 3.125-4.418 0-2.5859-2.1016-4.6875-4.6875-4.6875s-4.6875 2.1016-4.6875 4.6875c0 2.0352 1.3047 3.7734 3.125 4.418v9.6445h-7.8125v-10.938c0-0.86328-0.69922-1.5625-1.5625-1.5625s-1.5625 0.69922-1.5625 1.5625v10.938h-7.8125v-7.8125c0-0.86328-0.69922-1.5625-1.5625-1.5625s-1.5625 0.69922-1.5625 1.5625v7.9688c-3.0547 0.625-5.4688 3.0352-6.0938 6.0938h-7.9688c-0.86328 0-1.5625 0.69922-1.5625 1.5625s0.69922 1.5625 1.5625 1.5625h7.8125v7.8125h-10.938c-0.86328 0-1.5625 0.69922-1.5625 1.5625s0.69922 1.5625 1.5625 1.5625h10.938v7.8125h-9.6445c-0.64453-1.8203-2.3828-3.125-4.418-3.125-2.5859 0-4.6875 2.1016-4.6875 4.6875s2.1016 4.6875 4.6875 4.6875c2.0352 0 3.7734-1.3047 4.418-3.125h9.6445v7.8125h-10.938c-0.86328 0-1.5625 0.69922-1.5625 1.5625s0.69922 1.5625 1.5625 1.5625h10.938v7.8125h-7.8125c-0.86328 0-1.5625 0.69922-1.5625 1.5625s0.69922 1.5625 1.5625 1.5625h7.9688c0.625 3.0547 3.0352 5.4688 6.0938 6.0938v7.9688c0 0.86328 0.69922 1.5625 1.5625 1.5625s1.5625-0.69922 1.5625-1.5625v-7.8125h7.8125v10.938c0 0.86328 0.69922 1.5625 1.5625 1.5625s1.5625-0.69922 1.5625-1.5625v-10.938h7.8125v9.6445c-1.8203 0.64453-3.125 2.3828-3.125 4.418 0 2.5859 2.1016 4.6875 4.6875 4.6875s4.6875-2.1016 4.6875-4.6875c0-2.0352-1.3047-3.7734-3.125-4.418v-9.6445h7.8125v10.938c0 0.86328 0.69922 1.5625 1.5625 1.5625s1.5625-0.69922 1.5625-1.5625v-10.938h7.8125v7.8125c0 0.86328 0.69922 1.5625 1.5625 1.5625s1.5625-0.69922 1.5625-1.5625v-7.9688c3.0547-0.625 5.4688-3.0352 6.0938-6.0938h7.9688c0.86328 0 1.5625-0.69922 1.5625-1.5625s-0.69922-1.5625-1.5625-1.5625h-7.8125v-7.8125h10.938c0.86328 0 1.5625-0.69922 1.5625-1.5625s-0.69922-1.5625-1.5625-1.5625h-10.938v-7.8125h9.6445c0.64453 1.8203 2.3828 3.125 4.418 3.125 2.5859 0 4.6875-2.1016 4.6875-4.6875s-2.1016-4.6875-4.6875-4.6875zm-87.5 6.25c-0.86328 0-1.5625-0.69922-1.5625-1.5625s0.69922-1.5625 1.5625-1.5625 1.5625 0.69922 1.5625 1.5625-0.69922 1.5625-1.5625 1.5625zm43.75-46.875c0.86328 0 1.5625 0.69922 1.5625 1.5625s-0.69922 1.5625-1.5625 1.5625-1.5625-0.69922-1.5625-1.5625 0.69922-1.5625 1.5625-1.5625zm0 90.625c-0.86328 0-1.5625-0.69922-1.5625-1.5625s0.69922-1.5625 1.5625-1.5625 1.5625 0.69922 1.5625 1.5625-0.69922 1.5625-1.5625 1.5625zm26.562-23.438c0 2.5859-2.1016 4.6875-4.6875 4.6875h-43.75c-2.5859 0-4.6875-2.1016-4.6875-4.6875v-43.75c0-2.5859 2.1016-4.6875 4.6875-4.6875h43.75c2.5859 0 4.6875 2.1016 4.6875 4.6875zm17.188-20.312c-0.86328 0-1.5625-0.69922-1.5625-1.5625s0.69922-1.5625 1.5625-1.5625 1.5625 0.69922 1.5625 1.5625-0.69922 1.5625-1.5625 1.5625z"/>
 <path d="m67.188 43.75h-9.375v-7.8125c0-3.4453-2.8047-6.25-6.25-6.25h-18.75c-3.4453 0-6.25 2.8047-6.25 6.25v9.375c0 2.9062 1.9961 5.3555 4.6875 6.0508v3.3242c0 0.5625 0.30469 1.082 0.79297 1.3594 0.23828 0.13672 0.50391 0.20312 0.76953 0.20312 0.27734 0 0.55859-0.074219 0.80469-0.22266l7.4414-4.4648h1.1289v7.8125c0 3.4453 2.8047 6.25 6.25 6.25h10.504l7.4414 4.4648c0.24609 0.14844 0.52344 0.22266 0.80469 0.22266 0.26562 0 0.53125-0.066406 0.76953-0.20312 0.48828-0.27734 0.79297-0.79688 0.79297-1.3594v-3.3242c2.6914-0.69531 4.6875-3.1445 4.6875-6.0508v-9.375c0-3.4453-2.8047-6.25-6.25-6.25zm-26.562 4.6875c-0.28125 0-0.5625 0.078125-0.80469 0.22266l-5.4453 3.2695v-1.9297c0-0.86328-0.69922-1.5625-1.5625-1.5625-1.7227 0-3.125-1.4023-3.125-3.125v-9.375c0-1.7227 1.4023-3.125 3.125-3.125h18.75c1.7227 0 3.125 1.4023 3.125 3.125v9.375c0 1.7227-1.4023 3.125-3.125 3.125zm29.688 10.938c0 1.7227-1.4023 3.125-3.125 3.125-0.86328 0-1.5625 0.69922-1.5625 1.5625v1.9297l-5.4453-3.2656c-0.24219-0.14453-0.51953-0.22266-0.80469-0.22266h-10.938c-1.7227 0-3.125-1.4023-3.125-3.125v-7.8125h6.25c2.9062 0 5.3555-1.9961 6.0508-4.6875l9.5742-0.003906c1.7227 0 3.125 1.4023 3.125 3.125z"/>
 <path d="m43.75 40.625c0 2.082-3.125 2.082-3.125 0s3.125-2.082 3.125 0"/>
 <path d="m37.5 40.625c0 2.082-3.125 2.082-3.125 0s3.125-2.082 3.125 0"/>
 <path d="m50 40.625c0 2.082-3.125 2.082-3.125 0s3.125-2.082 3.125 0"/>
 <path d="m59.375 54.688c0 2.082-3.125 2.082-3.125 0s3.125-2.082 3.125 0"/>
 <path d="m53.125 54.688c0 2.082-3.125 2.082-3.125 0s3.125-2.082 3.125 0"/>
 <path d="m65.625 54.688c0 2.082-3.125 2.082-3.125 0s3.125-2.082 3.125 0"/>
<text x="0.0" y="117.5" font-size="5.0" font-weight="bold" font-family="Arbeit Regular, Helvetica, Arial-Unicode, Arial, Sans-serif" fill="#000000">Created by Trimanggolo Mulyo</text><text x="0.0" y="122.5" font-size="5.0" font-weight="bold" font-family="Arbeit Regular, Helvetica, Arial-Unicode, Arial, Sans-serif" fill="#000000">from Noun Project</text></svg>